<?xml version="1.0" encoding="utf-8"?>
<!-- Generator: Adobe Illustrator 21.0.0, SVG Export Plug-In . SVG Version: 6.00 Build 0)  -->
<svg version="1.1" xmlns="http://www.w3.org/2000/svg" xmlns:xlink="http://www.w3.org/1999/xlink" x="0px" y="0px"
	 viewBox="0 0 250 250" style="enable-background:new 0 0 250 250;" xml:space="preserve">
<style type="text/css">
	.st0{display:none;}
	.st1{display:inline;}
	.st2{fill:none;stroke:#4D4D4D;stroke-width:0.25;stroke-miterlimit:10;}
	.st3{display:inline;fill:#FFE17D;}
	.st4{display:inline;fill:#FFC350;}
	.st5{display:inline;fill:#FFD164;}
	.st6{fill-rule:evenodd;clip-rule:evenodd;fill:#00B9F2;}
	.st7{fill-rule:evenodd;clip-rule:evenodd;}
	.st8{fill:#FC9901;}
	.st9{fill:#101010;}
	.st10{fill:#FFFFFF;}
	.st11{display:inline;fill-rule:evenodd;clip-rule:evenodd;fill:none;}
	.st12{font-family:'Roboto-Bold';}
	.st13{font-size:18px;}
	.st14{fill:none;stroke:#000000;stroke-linecap:round;stroke-miterlimit:10;}
	.st15{fill:none;stroke:#FF0000;stroke-miterlimit:10;}
	.st16{fill:none;}
	.st17{font-size:26px;}
</style>
<g id="Capa_1" class="st0">
	<g class="st1">
		<g>
			<g>
				<line class="st2" x1="250" y1="-0.5" x2="250" y2="249.5"/>
			</g>
			<g>
				<line class="st2" x1="245" y1="-0.5" x2="245" y2="249.5"/>
			</g>
			<g>
				<line class="st2" x1="240" y1="-0.5" x2="240" y2="249.5"/>
			</g>
			<g>
				<line class="st2" x1="235" y1="-0.5" x2="235" y2="249.5"/>
			</g>
			<g>
				<line class="st2" x1="230" y1="-0.5" x2="230" y2="249.5"/>
			</g>
			<g>
				<line class="st2" x1="225" y1="-0.5" x2="225" y2="249.5"/>
			</g>
			<g>
				<line class="st2" x1="220" y1="-0.5" x2="220" y2="249.5"/>
			</g>
			<g>
				<line class="st2" x1="215" y1="-0.5" x2="215" y2="249.5"/>
			</g>
			<g>
				<line class="st2" x1="210" y1="-0.5" x2="210" y2="249.5"/>
			</g>
			<g>
				<line class="st2" x1="205" y1="-0.5" x2="205" y2="249.5"/>
			</g>
			<g>
				<line class="st2" x1="200" y1="-0.5" x2="200" y2="249.5"/>
			</g>
			<g>
				<line class="st2" x1="195" y1="-0.5" x2="195" y2="249.5"/>
			</g>
			<g>
				<line class="st2" x1="190" y1="-0.5" x2="190" y2="249.5"/>
			</g>
			<g>
				<line class="st2" x1="185" y1="-0.5" x2="185" y2="249.5"/>
			</g>
			<g>
				<line class="st2" x1="180" y1="-0.5" x2="180" y2="249.5"/>
			</g>
			<g>
				<line class="st2" x1="175" y1="-0.5" x2="175" y2="249.5"/>
			</g>
			<g>
				<line class="st2" x1="170" y1="-0.5" x2="170" y2="249.5"/>
			</g>
			<g>
				<line class="st2" x1="165" y1="-0.5" x2="165" y2="249.5"/>
			</g>
			<g>
				<line class="st2" x1="160" y1="-0.5" x2="160" y2="249.5"/>
			</g>
			<g>
				<line class="st2" x1="155" y1="-0.5" x2="155" y2="249.5"/>
			</g>
			<g>
				<line class="st2" x1="150" y1="-0.5" x2="150" y2="249.5"/>
			</g>
			<g>
				<line class="st2" x1="145" y1="-0.5" x2="145" y2="249.5"/>
			</g>
			<g>
				<line class="st2" x1="140" y1="-0.5" x2="140" y2="249.5"/>
			</g>
			<g>
				<line class="st2" x1="135" y1="-0.5" x2="135" y2="249.5"/>
			</g>
			<g>
				<line class="st2" x1="130" y1="-0.5" x2="130" y2="249.5"/>
			</g>
			<g>
				<line class="st2" x1="125" y1="-0.5" x2="125" y2="249.5"/>
			</g>
			<g>
				<line class="st2" x1="120" y1="-0.5" x2="120" y2="249.5"/>
			</g>
			<g>
				<line class="st2" x1="115" y1="-0.5" x2="115" y2="249.5"/>
			</g>
			<g>
				<line class="st2" x1="110" y1="-0.5" x2="110" y2="249.5"/>
			</g>
			<g>
				<line class="st2" x1="105" y1="-0.5" x2="105" y2="249.5"/>
			</g>
			<g>
				<line class="st2" x1="100" y1="-0.5" x2="100" y2="249.5"/>
			</g>
			<g>
				<line class="st2" x1="95" y1="-0.5" x2="95" y2="249.5"/>
			</g>
			<g>
				<line class="st2" x1="90" y1="-0.5" x2="90" y2="249.5"/>
			</g>
			<g>
				<line class="st2" x1="85" y1="-0.5" x2="85" y2="249.5"/>
			</g>
			<g>
				<line class="st2" x1="80" y1="-0.5" x2="80" y2="249.5"/>
			</g>
			<g>
				<line class="st2" x1="75" y1="-0.5" x2="75" y2="249.5"/>
			</g>
			<g>
				<line class="st2" x1="70" y1="-0.5" x2="70" y2="249.5"/>
			</g>
			<g>
				<line class="st2" x1="65" y1="-0.5" x2="65" y2="249.5"/>
			</g>
			<g>
				<line class="st2" x1="60" y1="-0.5" x2="60" y2="249.5"/>
			</g>
			<g>
				<line class="st2" x1="55" y1="-0.5" x2="55" y2="249.5"/>
			</g>
			<g>
				<line class="st2" x1="50" y1="-0.5" x2="50" y2="249.5"/>
			</g>
			<g>
				<line class="st2" x1="45" y1="-0.5" x2="45" y2="249.5"/>
			</g>
			<g>
				<line class="st2" x1="40" y1="-0.5" x2="40" y2="249.5"/>
			</g>
			<g>
				<line class="st2" x1="35" y1="-0.5" x2="35" y2="249.5"/>
			</g>
			<g>
				<line class="st2" x1="30" y1="-0.5" x2="30" y2="249.5"/>
			</g>
			<g>
				<line class="st2" x1="25" y1="-0.5" x2="25" y2="249.5"/>
			</g>
			<g>
				<line class="st2" x1="20" y1="-0.5" x2="20" y2="249.5"/>
			</g>
			<g>
				<line class="st2" x1="15" y1="-0.5" x2="15" y2="249.5"/>
			</g>
			<g>
				<line class="st2" x1="10" y1="-0.5" x2="10" y2="249.5"/>
			</g>
			<g>
				<line class="st2" x1="5" y1="-0.5" x2="5" y2="249.5"/>
			</g>
			<g>
				<line class="st2" x1="0" y1="-0.5" x2="0" y2="249.5"/>
			</g>
		</g>
		<g>
			<g>
				<line class="st2" x1="0" y1="4.5" x2="250" y2="4.5"/>
			</g>
			<g>
				<line class="st2" x1="0" y1="9.5" x2="250" y2="9.5"/>
			</g>
			<g>
				<line class="st2" x1="0" y1="14.5" x2="250" y2="14.5"/>
			</g>
			<g>
				<line class="st2" x1="0" y1="19.5" x2="250" y2="19.5"/>
			</g>
			<g>
				<line class="st2" x1="0" y1="24.5" x2="250" y2="24.5"/>
			</g>
			<g>
				<line class="st2" x1="0" y1="29.5" x2="250" y2="29.5"/>
			</g>
			<g>
				<line class="st2" x1="0" y1="34.5" x2="250" y2="34.5"/>
			</g>
			<g>
				<line class="st2" x1="0" y1="39.5" x2="250" y2="39.5"/>
			</g>
			<g>
				<line class="st2" x1="0" y1="44.5" x2="250" y2="44.5"/>
			</g>
			<g>
				<line class="st2" x1="0" y1="49.5" x2="250" y2="49.5"/>
			</g>
			<g>
				<line class="st2" x1="0" y1="54.5" x2="250" y2="54.5"/>
			</g>
			<g>
				<line class="st2" x1="0" y1="59.5" x2="250" y2="59.5"/>
			</g>
			<g>
				<line class="st2" x1="0" y1="64.5" x2="250" y2="64.5"/>
			</g>
			<g>
				<line class="st2" x1="0" y1="69.5" x2="250" y2="69.5"/>
			</g>
			<g>
				<line class="st2" x1="0" y1="74.5" x2="250" y2="74.5"/>
			</g>
			<g>
				<line class="st2" x1="0" y1="79.5" x2="250" y2="79.5"/>
			</g>
			<g>
				<line class="st2" x1="0" y1="84.5" x2="250" y2="84.5"/>
			</g>
			<g>
				<line class="st2" x1="0" y1="89.5" x2="250" y2="89.5"/>
			</g>
			<g>
				<line class="st2" x1="0" y1="94.5" x2="250" y2="94.5"/>
			</g>
			<g>
				<line class="st2" x1="0" y1="99.5" x2="250" y2="99.5"/>
			</g>
			<g>
				<line class="st2" x1="0" y1="104.5" x2="250" y2="104.5"/>
			</g>
			<g>
				<line class="st2" x1="0" y1="109.5" x2="250" y2="109.5"/>
			</g>
			<g>
				<line class="st2" x1="0" y1="114.5" x2="250" y2="114.5"/>
			</g>
			<g>
				<line class="st2" x1="0" y1="119.5" x2="250" y2="119.5"/>
			</g>
			<g>
				<line class="st2" x1="0" y1="124.5" x2="250" y2="124.5"/>
			</g>
			<g>
				<line class="st2" x1="0" y1="129.5" x2="250" y2="129.5"/>
			</g>
			<g>
				<line class="st2" x1="0" y1="134.5" x2="250" y2="134.5"/>
			</g>
			<g>
				<line class="st2" x1="0" y1="139.5" x2="250" y2="139.5"/>
			</g>
			<g>
				<line class="st2" x1="0" y1="144.5" x2="250" y2="144.5"/>
			</g>
			<g>
				<line class="st2" x1="0" y1="149.5" x2="250" y2="149.5"/>
			</g>
			<g>
				<line class="st2" x1="0" y1="154.5" x2="250" y2="154.5"/>
			</g>
			<g>
				<line class="st2" x1="0" y1="159.5" x2="250" y2="159.5"/>
			</g>
			<g>
				<line class="st2" x1="0" y1="164.5" x2="250" y2="164.5"/>
			</g>
			<g>
				<line class="st2" x1="0" y1="169.5" x2="250" y2="169.5"/>
			</g>
			<g>
				<line class="st2" x1="0" y1="174.5" x2="250" y2="174.5"/>
			</g>
			<g>
				<line class="st2" x1="0" y1="179.5" x2="250" y2="179.5"/>
			</g>
			<g>
				<line class="st2" x1="0" y1="184.5" x2="250" y2="184.5"/>
			</g>
			<g>
				<line class="st2" x1="0" y1="189.5" x2="250" y2="189.5"/>
			</g>
			<g>
				<line class="st2" x1="0" y1="194.5" x2="250" y2="194.5"/>
			</g>
			<g>
				<line class="st2" x1="0" y1="199.5" x2="250" y2="199.5"/>
			</g>
			<g>
				<line class="st2" x1="0" y1="204.5" x2="250" y2="204.5"/>
			</g>
			<g>
				<line class="st2" x1="0" y1="209.5" x2="250" y2="209.5"/>
			</g>
			<g>
				<line class="st2" x1="0" y1="214.5" x2="250" y2="214.5"/>
			</g>
			<g>
				<line class="st2" x1="0" y1="219.5" x2="250" y2="219.5"/>
			</g>
			<g>
				<line class="st2" x1="0" y1="224.5" x2="250" y2="224.5"/>
			</g>
			<g>
				<line class="st2" x1="0" y1="229.5" x2="250" y2="229.5"/>
			</g>
			<g>
				<line class="st2" x1="0" y1="234.5" x2="250" y2="234.5"/>
			</g>
			<g>
				<line class="st2" x1="0" y1="239.5" x2="250" y2="239.5"/>
			</g>
			<g>
				<line class="st2" x1="0" y1="244.5" x2="250" y2="244.5"/>
			</g>
			<g>
				<line class="st2" x1="0" y1="249.5" x2="250" y2="249.5"/>
			</g>
		</g>
	</g>
</g>
<g id="Capa_2" class="st0">
	<path class="st3" d="M127.3,24.6l-86,41.5c-1.1,0.5-1.8,1.6-1.8,2.8v102.1c0,1.2,0.7,2.3,1.8,2.8l86,41.5c1.7,0.8,3.7,0.8,5.4,0
		l86-41.5c1.1-0.5,1.8-1.6,1.8-2.8V68.9c0-1.2-0.7-2.3-1.8-2.8l-86-41.5C131,23.8,129,23.8,127.3,24.6z"/>
	<path class="st4" d="M40.1,67.2c-0.3,0.5-0.5,1.1-0.5,1.7v102.1c0,1.2,0.7,2.3,1.8,2.8l86,41.5c0.9,0.4,1.8,0.6,2.7,0.6V110.6
		L40.1,67.2z"/>
	<path class="st5" d="M219.9,67.2c0.3,0.5,0.5,1.1,0.5,1.7v102.1c0,1.2-0.7,2.3-1.8,2.8l-86,41.5c-0.9,0.4-1.8,0.6-2.7,0.6V110.6
		L219.9,67.2z"/>
	<polygon class="st1" points="189.5,81.9 99.2,38.3 75.4,49.8 165.9,93.5 	"/>
	<path class="st1" d="M165.9,93.5v33.8c0,1.1,1.2,1.9,2.2,1.4l19.6-9.5c1.1-0.5,1.8-1.6,1.8-2.8V81.9L165.9,93.5z"/>
	<g class="st1">
		<path class="st6" d="M89.6,51.8c0.1-0.5,0.3-0.9,0.7-1.2c0.2-0.1,0.5-0.2,0.8-0.1c0.4,0.1,0.7,0.3,0.9,0.5
			c0.3,0.3,0.5,0.6,0.6,0.9c0.1,0.3,0.2,0.6,0.1,0.9c-0.1,0.2-0.2,0.5-0.4,0.6c-0.2,0.2-0.6,0.4-0.9,0.4c0.3,0.4,0.6,0.7,0.9,1.1
			c0,0,0,0.1,0,0.1c0,0,0,0.1-0.1,0.1c-0.2,0.1-0.3,0.3-0.5,0.4c0,0-0.1,0.1-0.1,0c0,0-0.1,0-0.1-0.1l-2.9-3.3c-0.1-0.1,0-0.1,0-0.2
			c0.1-0.1,0.2-0.2,0.3-0.3c0,0,0.1-0.1,0.1-0.1c0,0,0.1,0,0.1,0C89.4,51.7,89.5,51.8,89.6,51.8L89.6,51.8z M89.9,52.1
			c0.4,0.4,0.7,0.9,1.1,1.3c0.3,0,0.5-0.2,0.7-0.4c0.1-0.1,0.2-0.3,0.1-0.5c-0.1-0.3-0.2-0.5-0.4-0.7c-0.1-0.1-0.2-0.2-0.4-0.3
			c-0.1-0.1-0.2-0.1-0.3-0.1c-0.1,0-0.3,0-0.4,0.1C90.2,51.6,90,51.9,89.9,52.1L89.9,52.1z"/>
		<path class="st6" d="M96,45.9c0.1-0.2,0.2-0.4,0.4-0.5c0.1-0.1,0.3-0.2,0.5-0.3c0.1,0,0.3,0,0.5,0c0.1-0.2,0.2-0.5,0.3-0.7
			c0.1-0.2,0.2-0.3,0.4-0.5c0.1-0.1,0.3-0.2,0.5-0.2c0.2,0,0.3,0,0.5,0.1c0.1,0.1,0.2,0.1,0.3,0.3c0.5,0.6,1,1.2,1.6,1.8
			c0,0,0.1,0.1,0,0.1c0,0,0,0.1-0.1,0.1c-0.2,0.1-0.3,0.3-0.5,0.4c0,0-0.1,0.1-0.1,0c0,0-0.1,0-0.1-0.1c-0.5-0.5-0.9-1.1-1.4-1.6
			c-0.1-0.1-0.2-0.1-0.3-0.2c-0.1,0-0.2,0-0.3,0.1c-0.2,0.2-0.3,0.4-0.4,0.6c0.5,0.6,1,1.2,1.6,1.8c0,0,0.1,0.1,0,0.1
			c0,0,0,0.1-0.1,0.1c-0.2,0.1-0.3,0.3-0.5,0.4c0,0-0.1,0.1-0.1,0.1c0,0-0.1,0-0.1-0.1c-0.5-0.5-0.9-1.1-1.4-1.6
			c-0.1-0.1-0.2-0.2-0.3-0.2c-0.1,0-0.2,0-0.3,0.1c-0.2,0.2-0.4,0.4-0.5,0.6c0.5,0.6,1,1.2,1.6,1.8c0,0,0.1,0.1,0,0.1
			c0,0,0,0.1-0.1,0.1c-0.2,0.1-0.3,0.3-0.5,0.4c0,0-0.1,0.1-0.1,0c0,0-0.1,0-0.1-0.1c-0.7-0.8-1.3-1.5-2-2.3c0,0-0.1-0.1-0.1-0.1
			c0-0.1,0-0.1,0.1-0.1c0.1-0.1,0.2-0.2,0.4-0.3c0.1,0,0.1-0.1,0.2,0c0.1,0,0.1,0.1,0.2,0.1C95.8,46.3,95.9,46.1,96,45.9L96,45.9z"
			/>
		<path class="st6" d="M99.9,42.5c0.1-0.2,0.3-0.4,0.5-0.6c0.2-0.1,0.3-0.3,0.6-0.3c0.2-0.1,0.4-0.1,0.6,0c0.2,0,0.3,0.1,0.4,0.3
			c0.1,0.1,0.3,0.3,0.3,0.5c0,0.2,0,0.4-0.1,0.6c-0.1,0.2-0.3,0.4-0.5,0.6c-0.2,0.2-0.4,0.3-0.6,0.5c0.1,0.1,0.3,0.3,0.5,0.3
			c0.2,0,0.4,0,0.5-0.1c0.2-0.1,0.3-0.3,0.5-0.4c0.1-0.1,0.2-0.2,0.3-0.4c0,0,0.1-0.1,0.1-0.1c0.1,0,0.1,0,0.1,0.1
			c0.1,0.1,0.1,0.2,0.2,0.2c0,0,0.1,0.1,0.1,0.2c0,0.1-0.1,0.2-0.1,0.2c-0.1,0.2-0.3,0.4-0.5,0.6c-0.2,0.2-0.3,0.3-0.5,0.4
			c-0.2,0.1-0.4,0.2-0.6,0.2c-0.2,0-0.4,0-0.6-0.1c-0.2-0.1-0.4-0.2-0.5-0.3c-0.2-0.2-0.4-0.4-0.5-0.6c-0.2-0.3-0.3-0.7-0.3-1
			C99.7,42.9,99.8,42.7,99.9,42.5L99.9,42.5z M100.5,43c0,0.2,0.1,0.4,0.2,0.6c0.2-0.1,0.4-0.2,0.5-0.4c0.1-0.1,0.2-0.2,0.2-0.3
			c0-0.1,0.1-0.2,0-0.3c0-0.1-0.1-0.2-0.2-0.2c-0.1-0.1-0.2-0.1-0.3-0.1c-0.1,0-0.2,0.1-0.3,0.2C100.6,42.6,100.5,42.8,100.5,43
			L100.5,43z"/>
		<path class="st6" d="M92.8,48.7c0.1-0.1,0.2-0.2,0.3-0.3c0,0,0.1-0.1,0.2-0.1c0.1,0,0.1,0,0.1,0.1c0.1,0.1,0.2,0.3,0.3,0.4
			c0,0,0.1,0.1,0.1,0.2c0,0.1-0.1,0.1-0.2,0.2c-0.2,0.1-0.3,0.3-0.5,0.5c0,0.1-0.1,0.1-0.1,0.2c0.5,0.6,1,1.1,1.4,1.7
			c0,0,0.1,0.1,0.1,0.1c0,0,0,0.1-0.1,0.1c-0.2,0.1-0.3,0.3-0.5,0.4c0,0-0.1,0.1-0.1,0.1c0,0-0.1,0-0.1-0.1c-0.7-0.8-1.3-1.5-2-2.3
			c0,0-0.1-0.1,0-0.1c0,0,0-0.1,0.1-0.1c0.1-0.1,0.2-0.2,0.4-0.3c0,0,0.1-0.1,0.1-0.1c0,0,0.1,0,0.1,0c0.1,0.1,0.2,0.1,0.3,0.2
			C92.6,49.1,92.7,48.9,92.8,48.7L92.8,48.7z"/>
		<path class="st6" d="M93.7,47.8C93.7,47.8,93.7,47.8,93.7,47.8c0.2-0.2,0.4-0.3,0.5-0.5c0,0,0.1-0.1,0.1-0.1
			c0.1,0,0.1,0.1,0.1,0.1c0.6,0.7,1.3,1.5,1.9,2.2c0,0,0.1,0.1,0.1,0.1c0,0.1,0,0.1-0.1,0.1c-0.2,0.1-0.3,0.3-0.5,0.4
			c0,0-0.1,0.1-0.1,0.1c0,0-0.1,0-0.1-0.1c-0.7-0.8-1.3-1.5-2-2.3C93.7,48,93.6,48,93.7,47.8C93.6,47.9,93.6,47.9,93.7,47.8
			L93.7,47.8z"/>
		<path class="st6" d="M102.9,46.1c0.2-0.2,0.5-0.4,0.8-0.6c0.1,0,0.2-0.1,0.3-0.1c0,0,0.1,0,0.1,0c0.1,0,0.1,0.1,0.1,0.1
			c0.1,0.1,0.2,0.3,0.3,0.4c0.2,0.3,0.3,0.6,0.4,0.9c0.1,0.4,0.2,0.8,0.1,1.1c0,0.1,0,0.1-0.1,0.2c0,0-0.1,0.1-0.1,0
			c0,0-0.1-0.1-0.1-0.1c-0.1-0.3-0.2-0.6-0.3-0.9c-0.1-0.2-0.2-0.4-0.3-0.6c-0.1-0.1-0.1-0.2-0.2-0.2c-0.1,0-0.2,0-0.2,0
			c-0.1,0.1-0.3,0.1-0.4,0.2c-0.4,0.3-0.7,0.7-1,1c0,0-0.1,0-0.1,0c0,0-0.1,0-0.1-0.1c0-0.1,0-0.1,0-0.2c0.1-0.3,0.3-0.6,0.5-0.9
			C102.7,46.3,102.8,46.2,102.9,46.1L102.9,46.1z"/>
		<path class="st6" d="M92.4,55.6c0,0,0-0.1,0.1-0.1c0,0,0.1,0,0.2,0c0.4-0.1,0.7-0.1,1-0.2c1.7-0.5,3.2-1.2,4.7-2.1
			c0.8-0.5,1.5-1.1,2.2-1.8c0.6-0.6,1.2-1.3,1.8-2.1c0.4-0.6,0.8-1.3,1.2-2c0.1-0.1,0.2-0.2,0.3-0.2c0.1,0,0.1,0.1,0.1,0.2
			c0,0.1,0,0.1,0,0.2c-0.1,0.5-0.3,0.9-0.5,1.4c-0.3,0.7-0.7,1.3-1.1,1.9c-0.5,0.8-1.1,1.5-1.8,2.1l-0.3,0.3
			c-0.1,0.1-0.2,0.2-0.3,0.2c-0.7,0.5-1.4,1-2.2,1.4c-0.7,0.3-1.5,0.6-2.3,0.8c-0.9,0.2-1.8,0.3-2.8,0.3c0,0-0.1,0-0.1,0
			C92.5,55.7,92.4,55.7,92.4,55.6L92.4,55.6z"/>
	</g>
	<g class="st1">
		<path class="st6" d="M104.6,59.8c0.1-0.5,0.3-0.9,0.7-1.2c0.2-0.1,0.5-0.2,0.8-0.1c0.4,0.1,0.7,0.3,0.9,0.5
			c0.3,0.3,0.5,0.6,0.6,0.9c0.1,0.3,0.2,0.6,0.1,0.9c-0.1,0.2-0.2,0.5-0.4,0.6c-0.2,0.2-0.6,0.4-0.9,0.4c0.3,0.4,0.6,0.7,0.9,1.1
			c0,0,0,0.1,0,0.1c0,0,0,0.1-0.1,0.1c-0.2,0.1-0.3,0.3-0.5,0.4c0,0-0.1,0.1-0.1,0c0,0-0.1,0-0.1-0.1l-2.9-3.3c-0.1-0.1,0-0.1,0-0.2
			c0.1-0.1,0.2-0.2,0.3-0.3c0,0,0.1-0.1,0.1-0.1c0,0,0.1,0,0.1,0C104.4,59.7,104.5,59.8,104.6,59.8L104.6,59.8z M104.9,60.1
			c0.4,0.4,0.7,0.9,1.1,1.3c0.3,0,0.5-0.2,0.7-0.4c0.1-0.1,0.2-0.3,0.1-0.5c-0.1-0.3-0.2-0.5-0.4-0.7c-0.1-0.1-0.2-0.2-0.4-0.3
			c-0.1-0.1-0.2-0.1-0.3-0.1c-0.1,0-0.3,0-0.4,0.1C105.2,59.6,105,59.9,104.9,60.1L104.9,60.1z"/>
		<path class="st6" d="M111,53.9c0.1-0.2,0.2-0.4,0.4-0.5c0.1-0.1,0.3-0.2,0.5-0.3c0.1,0,0.3,0,0.5,0c0.1-0.2,0.2-0.5,0.3-0.7
			c0.1-0.2,0.2-0.3,0.4-0.5c0.1-0.1,0.3-0.2,0.5-0.2c0.2,0,0.3,0,0.5,0.1c0.1,0.1,0.2,0.1,0.3,0.3c0.5,0.6,1,1.2,1.6,1.8
			c0,0,0.1,0.1,0,0.1c0,0,0,0.1-0.1,0.1c-0.2,0.1-0.3,0.3-0.5,0.4c0,0-0.1,0.1-0.1,0c0,0-0.1,0-0.1-0.1c-0.5-0.5-0.9-1.1-1.4-1.6
			c-0.1-0.1-0.2-0.1-0.3-0.2c-0.1,0-0.2,0-0.3,0.1c-0.2,0.2-0.3,0.4-0.4,0.6c0.5,0.6,1,1.2,1.6,1.8c0,0,0.1,0.1,0,0.1
			c0,0,0,0.1-0.1,0.1c-0.2,0.1-0.3,0.3-0.5,0.4c0,0-0.1,0.1-0.1,0.1c0,0-0.1,0-0.1-0.1c-0.5-0.5-0.9-1.1-1.4-1.6
			c-0.1-0.1-0.2-0.2-0.3-0.2c-0.1,0-0.2,0-0.3,0.1c-0.2,0.2-0.4,0.4-0.5,0.6c0.5,0.6,1,1.2,1.6,1.8c0,0,0.1,0.1,0,0.1
			c0,0,0,0.1-0.1,0.1c-0.2,0.1-0.3,0.3-0.5,0.4c0,0-0.1,0.1-0.1,0c0,0-0.1,0-0.1-0.1c-0.7-0.8-1.3-1.5-2-2.3c0,0-0.1-0.1-0.1-0.1
			c0-0.1,0-0.1,0.1-0.1c0.1-0.1,0.2-0.2,0.4-0.3c0.1,0,0.1-0.1,0.2,0c0.1,0,0.1,0.1,0.2,0.1C110.8,54.3,110.9,54.1,111,53.9
			L111,53.9z"/>
		<path class="st6" d="M114.9,50.5c0.1-0.2,0.3-0.4,0.5-0.6c0.2-0.1,0.3-0.3,0.6-0.3c0.2-0.1,0.4-0.1,0.6,0c0.2,0,0.3,0.1,0.4,0.3
			c0.1,0.1,0.3,0.3,0.3,0.5c0,0.2,0,0.4-0.1,0.6c-0.1,0.2-0.3,0.4-0.5,0.6c-0.2,0.2-0.4,0.3-0.6,0.5c0.1,0.1,0.3,0.3,0.5,0.3
			c0.2,0,0.4,0,0.5-0.1c0.2-0.1,0.3-0.3,0.5-0.4c0.1-0.1,0.2-0.2,0.3-0.4c0,0,0.1-0.1,0.1-0.1c0.1,0,0.1,0,0.1,0.1
			c0.1,0.1,0.1,0.2,0.2,0.2c0,0,0.1,0.1,0.1,0.2c0,0.1-0.1,0.2-0.1,0.2c-0.1,0.2-0.3,0.4-0.5,0.6c-0.2,0.2-0.3,0.3-0.5,0.4
			c-0.2,0.1-0.4,0.2-0.6,0.2c-0.2,0-0.4,0-0.6-0.1c-0.2-0.1-0.4-0.2-0.5-0.3c-0.2-0.2-0.4-0.4-0.5-0.6c-0.2-0.3-0.3-0.7-0.3-1
			C114.7,50.9,114.8,50.7,114.9,50.5L114.9,50.5z M115.5,51c0,0.2,0.1,0.4,0.2,0.6c0.2-0.1,0.4-0.2,0.5-0.4c0.1-0.1,0.2-0.2,0.2-0.3
			c0-0.1,0.1-0.2,0-0.3c0-0.1-0.1-0.2-0.2-0.2c-0.1-0.1-0.2-0.1-0.3-0.1c-0.1,0-0.2,0.1-0.3,0.2C115.6,50.6,115.5,50.8,115.5,51
			L115.5,51z"/>
		<path class="st6" d="M107.8,56.7c0.1-0.1,0.2-0.2,0.3-0.3c0,0,0.1-0.1,0.2-0.1c0.1,0,0.1,0,0.1,0.1c0.1,0.1,0.2,0.3,0.3,0.4
			c0,0,0.1,0.1,0.1,0.2c0,0.1-0.1,0.1-0.2,0.2c-0.2,0.1-0.3,0.3-0.5,0.5c0,0.1-0.1,0.1-0.1,0.2c0.5,0.6,1,1.1,1.4,1.7
			c0,0,0.1,0.1,0.1,0.1c0,0,0,0.1-0.1,0.1c-0.2,0.1-0.3,0.3-0.5,0.4c0,0-0.1,0.1-0.1,0.1c0,0-0.1,0-0.1-0.1c-0.7-0.8-1.3-1.5-2-2.3
			c0,0-0.1-0.1,0-0.1c0,0,0-0.1,0.1-0.1c0.1-0.1,0.2-0.2,0.4-0.3c0,0,0.1-0.1,0.1-0.1c0,0,0.1,0,0.1,0c0.1,0.1,0.2,0.1,0.3,0.2
			C107.6,57.1,107.7,56.9,107.8,56.7L107.8,56.7z"/>
		<path class="st6" d="M108.7,55.8C108.7,55.8,108.7,55.8,108.7,55.8c0.2-0.2,0.4-0.3,0.5-0.5c0,0,0.1-0.1,0.1-0.1
			c0.1,0,0.1,0.1,0.1,0.1c0.6,0.7,1.3,1.5,1.9,2.2c0,0,0.1,0.1,0.1,0.1c0,0.1,0,0.1-0.1,0.1c-0.2,0.1-0.3,0.3-0.5,0.4
			c0,0-0.1,0.1-0.1,0.1c0,0-0.1,0-0.1-0.1c-0.7-0.8-1.3-1.5-2-2.3C108.7,56,108.6,56,108.7,55.8C108.6,55.9,108.6,55.9,108.7,55.8
			L108.7,55.8z"/>
		<path class="st6" d="M117.9,54.1c0.2-0.2,0.5-0.4,0.8-0.6c0.1,0,0.2-0.1,0.3-0.1c0,0,0.1,0,0.1,0c0.1,0,0.1,0.1,0.1,0.1
			c0.1,0.1,0.2,0.3,0.3,0.4c0.2,0.3,0.3,0.6,0.4,0.9c0.1,0.4,0.2,0.8,0.1,1.1c0,0.1,0,0.1-0.1,0.2c0,0-0.1,0.1-0.1,0
			c0,0-0.1-0.1-0.1-0.1c-0.1-0.3-0.2-0.6-0.3-0.9c-0.1-0.2-0.2-0.4-0.3-0.6c-0.1-0.1-0.1-0.2-0.2-0.2c-0.1,0-0.2,0-0.2,0
			c-0.1,0.1-0.3,0.1-0.4,0.2c-0.4,0.3-0.7,0.7-1,1c0,0-0.1,0-0.1,0c0,0-0.1,0-0.1-0.1c0-0.1,0-0.1,0-0.2c0.1-0.3,0.3-0.6,0.5-0.9
			C117.7,54.3,117.8,54.2,117.9,54.1L117.9,54.1z"/>
		<path class="st6" d="M107.4,63.6c0,0,0-0.1,0.1-0.1c0,0,0.1,0,0.2,0c0.4-0.1,0.7-0.1,1-0.2c1.7-0.5,3.2-1.2,4.7-2.1
			c0.8-0.5,1.5-1.1,2.2-1.8c0.6-0.6,1.2-1.3,1.8-2.1c0.4-0.6,0.8-1.3,1.2-2c0.1-0.1,0.2-0.2,0.3-0.2c0.1,0,0.1,0.1,0.1,0.2
			c0,0.1,0,0.1,0,0.2c-0.1,0.5-0.3,0.9-0.5,1.4c-0.3,0.7-0.7,1.3-1.1,1.9c-0.5,0.8-1.1,1.5-1.8,2.1l-0.3,0.3
			c-0.1,0.1-0.2,0.2-0.3,0.2c-0.7,0.5-1.4,1-2.2,1.4c-0.7,0.3-1.5,0.6-2.3,0.8c-0.9,0.2-1.8,0.3-2.8,0.3c0,0-0.1,0-0.1,0
			C107.5,63.7,107.4,63.7,107.4,63.6L107.4,63.6z"/>
	</g>
	<g class="st1">
		<path class="st6" d="M120.6,67.8c0.1-0.5,0.3-0.9,0.7-1.2c0.2-0.1,0.5-0.2,0.8-0.1c0.4,0.1,0.7,0.3,0.9,0.5
			c0.3,0.3,0.5,0.6,0.6,0.9c0.1,0.3,0.2,0.6,0.1,0.9c-0.1,0.2-0.2,0.5-0.4,0.6c-0.2,0.2-0.6,0.4-0.9,0.4c0.3,0.4,0.6,0.7,0.9,1.1
			c0,0,0,0.1,0,0.1c0,0,0,0.1-0.1,0.1c-0.2,0.1-0.3,0.3-0.5,0.4c0,0-0.1,0.1-0.1,0c0,0-0.1,0-0.1-0.1l-2.9-3.3c-0.1-0.1,0-0.1,0-0.2
			c0.1-0.1,0.2-0.2,0.3-0.3c0,0,0.1-0.1,0.1-0.1c0,0,0.1,0,0.1,0C120.4,67.7,120.5,67.8,120.6,67.8L120.6,67.8z M120.9,68.1
			c0.4,0.4,0.7,0.9,1.1,1.3c0.3,0,0.5-0.2,0.7-0.4c0.1-0.1,0.2-0.3,0.1-0.5c-0.1-0.3-0.2-0.5-0.4-0.7c-0.1-0.1-0.2-0.2-0.4-0.3
			c-0.1-0.1-0.2-0.1-0.3-0.1c-0.1,0-0.3,0-0.4,0.1C121.2,67.6,121,67.9,120.9,68.1L120.9,68.1z"/>
		<path class="st6" d="M127,61.9c0.1-0.2,0.2-0.4,0.4-0.5c0.1-0.1,0.3-0.2,0.5-0.3c0.1,0,0.3,0,0.5,0c0.1-0.2,0.2-0.5,0.3-0.7
			c0.1-0.2,0.2-0.3,0.4-0.5c0.1-0.1,0.3-0.2,0.5-0.2c0.2,0,0.3,0,0.5,0.1c0.1,0.1,0.2,0.1,0.3,0.3c0.5,0.6,1,1.2,1.6,1.8
			c0,0,0.1,0.1,0,0.1c0,0,0,0.1-0.1,0.1c-0.2,0.1-0.3,0.3-0.5,0.4c0,0-0.1,0.1-0.1,0c0,0-0.1,0-0.1-0.1c-0.5-0.5-0.9-1.1-1.4-1.6
			c-0.1-0.1-0.2-0.1-0.3-0.2c-0.1,0-0.2,0-0.3,0.1c-0.2,0.2-0.3,0.4-0.4,0.6c0.5,0.6,1,1.2,1.6,1.8c0,0,0.1,0.1,0,0.1
			c0,0,0,0.1-0.1,0.1c-0.2,0.1-0.3,0.3-0.5,0.4c0,0-0.1,0.1-0.1,0.1c0,0-0.1,0-0.1-0.1c-0.5-0.5-0.9-1.1-1.4-1.6
			c-0.1-0.1-0.2-0.2-0.3-0.2c-0.1,0-0.2,0-0.3,0.1c-0.2,0.2-0.4,0.4-0.5,0.6c0.5,0.6,1,1.2,1.6,1.8c0,0,0.1,0.1,0,0.1
			c0,0,0,0.1-0.1,0.1c-0.2,0.1-0.3,0.3-0.5,0.4c0,0-0.1,0.1-0.1,0c0,0-0.1,0-0.1-0.1c-0.7-0.8-1.3-1.5-2-2.3c0,0-0.1-0.1-0.1-0.1
			c0-0.1,0-0.1,0.1-0.1c0.1-0.1,0.2-0.2,0.4-0.3c0.1,0,0.1-0.1,0.2,0c0.1,0,0.1,0.1,0.2,0.1C126.8,62.3,126.9,62.1,127,61.9
			L127,61.9z"/>
		<path class="st6" d="M130.9,58.5c0.1-0.2,0.3-0.4,0.5-0.6c0.2-0.1,0.3-0.3,0.6-0.3c0.2-0.1,0.4-0.1,0.6,0c0.2,0,0.3,0.1,0.4,0.3
			c0.1,0.1,0.3,0.3,0.3,0.5c0,0.2,0,0.4-0.1,0.6c-0.1,0.2-0.3,0.4-0.5,0.6c-0.2,0.2-0.4,0.3-0.6,0.5c0.1,0.1,0.3,0.3,0.5,0.3
			c0.2,0,0.4,0,0.5-0.1c0.2-0.1,0.3-0.3,0.5-0.4c0.1-0.1,0.2-0.2,0.3-0.4c0,0,0.1-0.1,0.1-0.1c0.1,0,0.1,0,0.1,0.1
			c0.1,0.1,0.1,0.2,0.2,0.2c0,0,0.1,0.1,0.1,0.2c0,0.1-0.1,0.2-0.1,0.2c-0.1,0.2-0.3,0.4-0.5,0.6c-0.2,0.2-0.3,0.3-0.5,0.4
			c-0.2,0.1-0.4,0.2-0.6,0.2c-0.2,0-0.4,0-0.6-0.1c-0.2-0.1-0.4-0.2-0.5-0.3c-0.2-0.2-0.4-0.4-0.5-0.6c-0.2-0.3-0.3-0.7-0.3-1
			C130.7,58.9,130.8,58.7,130.9,58.5L130.9,58.5z M131.5,59c0,0.2,0.1,0.4,0.2,0.6c0.2-0.1,0.4-0.2,0.5-0.4c0.1-0.1,0.2-0.2,0.2-0.3
			c0-0.1,0.1-0.2,0-0.3c0-0.1-0.1-0.2-0.2-0.2c-0.1-0.1-0.2-0.1-0.3-0.1c-0.1,0-0.2,0.1-0.3,0.2C131.6,58.6,131.5,58.8,131.5,59
			L131.5,59z"/>
		<path class="st6" d="M123.8,64.7c0.1-0.1,0.2-0.2,0.3-0.3c0,0,0.1-0.1,0.2-0.1c0.1,0,0.1,0,0.1,0.1c0.1,0.1,0.2,0.3,0.3,0.4
			c0,0,0.1,0.1,0.1,0.2c0,0.1-0.1,0.1-0.2,0.2c-0.2,0.1-0.3,0.3-0.5,0.5c0,0.1-0.1,0.1-0.1,0.2c0.5,0.6,1,1.1,1.4,1.7
			c0,0,0.1,0.1,0.1,0.1c0,0,0,0.1-0.1,0.1c-0.2,0.1-0.3,0.3-0.5,0.4c0,0-0.1,0.1-0.1,0.1c0,0-0.1,0-0.1-0.1c-0.7-0.8-1.3-1.5-2-2.3
			c0,0-0.1-0.1,0-0.1c0,0,0-0.1,0.1-0.1c0.1-0.1,0.2-0.2,0.4-0.3c0,0,0.1-0.1,0.1-0.1c0,0,0.1,0,0.1,0c0.1,0.1,0.2,0.1,0.3,0.2
			C123.6,65.1,123.7,64.9,123.8,64.7L123.8,64.7z"/>
		<path class="st6" d="M124.7,63.8C124.7,63.8,124.7,63.8,124.7,63.8c0.2-0.2,0.4-0.3,0.5-0.5c0,0,0.1-0.1,0.1-0.1
			c0.1,0,0.1,0.1,0.1,0.1c0.6,0.7,1.3,1.5,1.9,2.2c0,0,0.1,0.1,0.1,0.1c0,0.1,0,0.1-0.1,0.1c-0.2,0.1-0.3,0.3-0.5,0.4
			c0,0-0.1,0.1-0.1,0.1c0,0-0.1,0-0.1-0.1c-0.7-0.8-1.3-1.5-2-2.3C124.7,64,124.6,64,124.7,63.8C124.6,63.9,124.6,63.9,124.7,63.8
			L124.7,63.8z"/>
		<path class="st6" d="M133.9,62.1c0.2-0.2,0.5-0.4,0.8-0.6c0.1,0,0.2-0.1,0.3-0.1c0,0,0.1,0,0.1,0c0.1,0,0.1,0.1,0.1,0.1
			c0.1,0.1,0.2,0.3,0.3,0.4c0.2,0.3,0.3,0.6,0.4,0.9c0.1,0.4,0.2,0.8,0.1,1.1c0,0.1,0,0.1-0.1,0.2c0,0-0.1,0.1-0.1,0
			c0,0-0.1-0.1-0.1-0.1c-0.1-0.3-0.2-0.6-0.3-0.9c-0.1-0.2-0.2-0.4-0.3-0.6c-0.1-0.1-0.1-0.2-0.2-0.2c-0.1,0-0.2,0-0.2,0
			c-0.1,0.1-0.3,0.1-0.4,0.2c-0.4,0.3-0.7,0.7-1,1c0,0-0.1,0-0.1,0c0,0-0.1,0-0.1-0.1c0-0.1,0-0.1,0-0.2c0.1-0.3,0.3-0.6,0.5-0.9
			C133.7,62.3,133.8,62.2,133.9,62.1L133.9,62.1z"/>
		<path class="st6" d="M123.4,71.6c0,0,0-0.1,0.1-0.1c0,0,0.1,0,0.2,0c0.4-0.1,0.7-0.1,1-0.2c1.7-0.5,3.2-1.2,4.7-2.1
			c0.8-0.5,1.5-1.1,2.2-1.8c0.6-0.6,1.2-1.3,1.8-2.1c0.4-0.6,0.8-1.3,1.2-2c0.1-0.1,0.2-0.2,0.3-0.2c0.1,0,0.1,0.1,0.1,0.2
			c0,0.1,0,0.1,0,0.2c-0.1,0.5-0.3,0.9-0.5,1.4c-0.3,0.7-0.7,1.3-1.1,1.9c-0.5,0.8-1.1,1.5-1.8,2.1l-0.3,0.3
			c-0.1,0.1-0.2,0.2-0.3,0.2c-0.7,0.5-1.4,1-2.2,1.4c-0.7,0.3-1.5,0.6-2.3,0.8c-0.9,0.2-1.8,0.3-2.8,0.3c0,0-0.1,0-0.1,0
			C123.5,71.7,123.4,71.7,123.4,71.6L123.4,71.6z"/>
	</g>
	<g class="st1">
		<path class="st6" d="M138.6,74.8c0.1-0.5,0.3-0.9,0.7-1.2c0.2-0.1,0.5-0.2,0.8-0.1c0.4,0.1,0.7,0.3,0.9,0.5
			c0.3,0.3,0.5,0.6,0.6,0.9c0.1,0.3,0.2,0.6,0.1,0.9c-0.1,0.2-0.2,0.5-0.4,0.6c-0.2,0.2-0.6,0.4-0.9,0.4c0.3,0.4,0.6,0.7,0.9,1.1
			c0,0,0,0.1,0,0.1c0,0,0,0.1-0.1,0.1c-0.2,0.1-0.3,0.3-0.5,0.4c0,0-0.1,0.1-0.1,0c0,0-0.1,0-0.1-0.1l-2.9-3.3c-0.1-0.1,0-0.1,0-0.2
			c0.1-0.1,0.2-0.2,0.3-0.3c0,0,0.1-0.1,0.1-0.1c0,0,0.1,0,0.1,0C138.4,74.7,138.5,74.8,138.6,74.8L138.6,74.8z M138.9,75.1
			c0.4,0.4,0.7,0.9,1.1,1.3c0.3,0,0.5-0.2,0.7-0.4c0.1-0.1,0.2-0.3,0.1-0.5c-0.1-0.3-0.2-0.5-0.4-0.7c-0.1-0.1-0.2-0.2-0.4-0.3
			c-0.1-0.1-0.2-0.1-0.3-0.1c-0.1,0-0.3,0-0.4,0.1C139.2,74.6,139,74.9,138.9,75.1L138.9,75.1z"/>
		<path class="st6" d="M145,68.9c0.1-0.2,0.2-0.4,0.4-0.5c0.1-0.1,0.3-0.2,0.5-0.3c0.1,0,0.3,0,0.5,0c0.1-0.2,0.2-0.5,0.3-0.7
			c0.1-0.2,0.2-0.3,0.4-0.5c0.1-0.1,0.3-0.2,0.5-0.2c0.2,0,0.3,0,0.5,0.1c0.1,0.1,0.2,0.1,0.3,0.3c0.5,0.6,1,1.2,1.6,1.8
			c0,0,0.1,0.1,0,0.1c0,0,0,0.1-0.1,0.1c-0.2,0.1-0.3,0.3-0.5,0.4c0,0-0.1,0.1-0.1,0c0,0-0.1,0-0.1-0.1c-0.5-0.5-0.9-1.1-1.4-1.6
			c-0.1-0.1-0.2-0.1-0.3-0.2c-0.1,0-0.2,0-0.3,0.1c-0.2,0.2-0.3,0.4-0.4,0.6c0.5,0.6,1,1.2,1.6,1.8c0,0,0.1,0.1,0,0.1
			c0,0,0,0.1-0.1,0.1c-0.2,0.1-0.3,0.3-0.5,0.4c0,0-0.1,0.1-0.1,0.1c0,0-0.1,0-0.1-0.1c-0.5-0.5-0.9-1.1-1.4-1.6
			c-0.1-0.1-0.2-0.2-0.3-0.2c-0.1,0-0.2,0-0.3,0.1c-0.2,0.2-0.4,0.4-0.5,0.6c0.5,0.6,1,1.2,1.6,1.8c0,0,0.1,0.1,0,0.1
			c0,0,0,0.1-0.1,0.1c-0.2,0.1-0.3,0.3-0.5,0.4c0,0-0.1,0.1-0.1,0c0,0-0.1,0-0.1-0.1c-0.7-0.8-1.3-1.5-2-2.3c0,0-0.1-0.1-0.1-0.1
			c0-0.1,0-0.1,0.1-0.1c0.1-0.1,0.2-0.2,0.4-0.3c0.1,0,0.1-0.1,0.2,0c0.1,0,0.1,0.1,0.2,0.1C144.8,69.3,144.9,69.1,145,68.9
			L145,68.9z"/>
		<path class="st6" d="M148.9,65.5c0.1-0.2,0.3-0.4,0.5-0.6c0.2-0.1,0.3-0.3,0.6-0.3c0.2-0.1,0.4-0.1,0.6,0c0.2,0,0.3,0.1,0.4,0.3
			c0.1,0.1,0.3,0.3,0.3,0.5c0,0.2,0,0.4-0.1,0.6c-0.1,0.2-0.3,0.4-0.5,0.6c-0.2,0.2-0.4,0.3-0.6,0.5c0.1,0.1,0.3,0.3,0.5,0.3
			c0.2,0,0.4,0,0.5-0.1c0.2-0.1,0.3-0.3,0.5-0.4c0.1-0.1,0.2-0.2,0.3-0.4c0,0,0.1-0.1,0.1-0.1c0.1,0,0.1,0,0.1,0.1
			c0.1,0.1,0.1,0.2,0.2,0.2c0,0,0.1,0.1,0.1,0.2c0,0.1-0.1,0.2-0.1,0.2c-0.1,0.2-0.3,0.4-0.5,0.6c-0.2,0.2-0.3,0.3-0.5,0.4
			c-0.2,0.1-0.4,0.2-0.6,0.2c-0.2,0-0.4,0-0.6-0.1c-0.2-0.1-0.4-0.2-0.5-0.3c-0.2-0.2-0.4-0.4-0.5-0.6c-0.2-0.3-0.3-0.7-0.3-1
			C148.7,65.9,148.8,65.7,148.9,65.5L148.9,65.5z M149.5,66c0,0.2,0.1,0.4,0.2,0.6c0.2-0.1,0.4-0.2,0.5-0.4c0.1-0.1,0.2-0.2,0.2-0.3
			c0-0.1,0.1-0.2,0-0.3c0-0.1-0.1-0.2-0.2-0.2c-0.1-0.1-0.2-0.1-0.3-0.1c-0.1,0-0.2,0.1-0.3,0.2C149.6,65.6,149.5,65.8,149.5,66
			L149.5,66z"/>
		<path class="st6" d="M141.8,71.7c0.1-0.1,0.2-0.2,0.3-0.3c0,0,0.1-0.1,0.2-0.1c0.1,0,0.1,0,0.1,0.1c0.1,0.1,0.2,0.3,0.3,0.4
			c0,0,0.1,0.1,0.1,0.2c0,0.1-0.1,0.1-0.2,0.2c-0.2,0.1-0.3,0.3-0.5,0.5c0,0.1-0.1,0.1-0.1,0.2c0.5,0.6,1,1.1,1.4,1.7
			c0,0,0.1,0.1,0.1,0.1c0,0,0,0.1-0.1,0.1c-0.2,0.1-0.3,0.3-0.5,0.4c0,0-0.1,0.1-0.1,0.1c0,0-0.1,0-0.1-0.1c-0.7-0.8-1.3-1.5-2-2.3
			c0,0-0.1-0.1,0-0.1c0,0,0-0.1,0.1-0.1c0.1-0.1,0.2-0.2,0.4-0.3c0,0,0.1-0.1,0.1-0.1c0,0,0.1,0,0.1,0c0.1,0.1,0.2,0.1,0.3,0.2
			C141.6,72.1,141.7,71.9,141.8,71.7L141.8,71.7z"/>
		<path class="st6" d="M142.7,70.8C142.7,70.8,142.7,70.8,142.7,70.8c0.2-0.2,0.4-0.3,0.5-0.5c0,0,0.1-0.1,0.1-0.1
			c0.1,0,0.1,0.1,0.1,0.1c0.6,0.7,1.3,1.5,1.9,2.2c0,0,0.1,0.1,0.1,0.1c0,0.1,0,0.1-0.1,0.1c-0.2,0.1-0.3,0.3-0.5,0.4
			c0,0-0.1,0.1-0.1,0.1c0,0-0.1,0-0.1-0.1c-0.7-0.8-1.3-1.5-2-2.3C142.7,71,142.6,71,142.7,70.8C142.6,70.9,142.6,70.9,142.7,70.8
			L142.7,70.8z"/>
		<path class="st6" d="M151.9,69.1c0.2-0.2,0.5-0.4,0.8-0.6c0.1,0,0.2-0.1,0.3-0.1c0,0,0.1,0,0.1,0c0.1,0,0.1,0.1,0.1,0.1
			c0.1,0.1,0.2,0.3,0.3,0.4c0.2,0.3,0.3,0.6,0.4,0.9c0.1,0.4,0.2,0.8,0.1,1.1c0,0.1,0,0.1-0.1,0.2c0,0-0.1,0.1-0.1,0
			c0,0-0.1-0.1-0.1-0.1c-0.1-0.3-0.2-0.6-0.3-0.9c-0.1-0.2-0.2-0.4-0.3-0.6c-0.1-0.1-0.1-0.2-0.2-0.2c-0.1,0-0.2,0-0.2,0
			c-0.1,0.1-0.3,0.1-0.4,0.2c-0.4,0.3-0.7,0.7-1,1c0,0-0.1,0-0.1,0c0,0-0.1,0-0.1-0.1c0-0.1,0-0.1,0-0.2c0.1-0.3,0.3-0.6,0.5-0.9
			C151.7,69.3,151.8,69.2,151.9,69.1L151.9,69.1z"/>
		<path class="st6" d="M141.4,78.6c0,0,0-0.1,0.1-0.1c0,0,0.1,0,0.2,0c0.4-0.1,0.7-0.1,1-0.2c1.7-0.5,3.2-1.2,4.7-2.1
			c0.8-0.5,1.5-1.1,2.2-1.8c0.6-0.6,1.2-1.3,1.8-2.1c0.4-0.6,0.8-1.3,1.2-2c0.1-0.1,0.2-0.2,0.3-0.2c0.1,0,0.1,0.1,0.1,0.2
			c0,0.1,0,0.1,0,0.2c-0.1,0.5-0.3,0.9-0.5,1.4c-0.3,0.7-0.7,1.3-1.1,1.9c-0.5,0.8-1.1,1.5-1.8,2.1l-0.3,0.3
			c-0.1,0.1-0.2,0.2-0.3,0.2c-0.7,0.5-1.4,1-2.2,1.4c-0.7,0.3-1.5,0.6-2.3,0.8c-0.9,0.2-1.8,0.3-2.8,0.3c0,0-0.1,0-0.1,0
			C141.5,78.7,141.4,78.7,141.4,78.6L141.4,78.6z"/>
	</g>
	<g class="st1">
		<path class="st6" d="M156.6,83.8c0.1-0.5,0.3-0.9,0.7-1.2c0.2-0.1,0.5-0.2,0.8-0.1c0.4,0.1,0.7,0.3,0.9,0.5
			c0.3,0.3,0.5,0.6,0.6,0.9c0.1,0.3,0.2,0.6,0.1,0.9c-0.1,0.2-0.2,0.5-0.4,0.6c-0.2,0.2-0.6,0.4-0.9,0.4c0.3,0.4,0.6,0.7,0.9,1.1
			c0,0,0,0.1,0,0.1c0,0,0,0.1-0.1,0.1c-0.2,0.1-0.3,0.3-0.5,0.4c0,0-0.1,0.1-0.1,0c0,0-0.1,0-0.1-0.1l-2.9-3.3c-0.1-0.1,0-0.1,0-0.2
			c0.1-0.1,0.2-0.2,0.3-0.3c0,0,0.1-0.1,0.1-0.1c0,0,0.1,0,0.1,0C156.4,83.7,156.5,83.8,156.6,83.8L156.6,83.8z M156.9,84.1
			c0.4,0.4,0.7,0.9,1.1,1.3c0.3,0,0.5-0.2,0.7-0.4c0.1-0.1,0.2-0.3,0.1-0.5c-0.1-0.3-0.2-0.5-0.4-0.7c-0.1-0.1-0.2-0.2-0.4-0.3
			c-0.1-0.1-0.2-0.1-0.3-0.1c-0.1,0-0.3,0-0.4,0.1C157.2,83.6,157,83.9,156.9,84.1L156.9,84.1z"/>
		<path class="st6" d="M163,77.9c0.1-0.2,0.2-0.4,0.4-0.5c0.1-0.1,0.3-0.2,0.5-0.3c0.1,0,0.3,0,0.5,0c0.1-0.2,0.2-0.5,0.3-0.7
			c0.1-0.2,0.2-0.3,0.4-0.5c0.1-0.1,0.3-0.2,0.5-0.2c0.2,0,0.3,0,0.5,0.1c0.1,0.1,0.2,0.1,0.3,0.3c0.5,0.6,1,1.2,1.6,1.8
			c0,0,0.1,0.1,0,0.1c0,0,0,0.1-0.1,0.1c-0.2,0.1-0.3,0.3-0.5,0.4c0,0-0.1,0.1-0.1,0c0,0-0.1,0-0.1-0.1c-0.5-0.5-0.9-1.1-1.4-1.6
			c-0.1-0.1-0.2-0.1-0.3-0.2c-0.1,0-0.2,0-0.3,0.1c-0.2,0.2-0.3,0.4-0.4,0.6c0.5,0.6,1,1.2,1.6,1.8c0,0,0.1,0.1,0,0.1
			c0,0,0,0.1-0.1,0.1c-0.2,0.1-0.3,0.3-0.5,0.4c0,0-0.1,0.1-0.1,0.1c0,0-0.1,0-0.1-0.1c-0.5-0.5-0.9-1.1-1.4-1.6
			c-0.1-0.1-0.2-0.2-0.3-0.2c-0.1,0-0.2,0-0.3,0.1c-0.2,0.2-0.4,0.4-0.5,0.6c0.5,0.6,1,1.2,1.6,1.8c0,0,0.1,0.1,0,0.1
			c0,0,0,0.1-0.1,0.1c-0.2,0.1-0.3,0.3-0.5,0.4c0,0-0.1,0.1-0.1,0c0,0-0.1,0-0.1-0.1c-0.7-0.8-1.3-1.5-2-2.3c0,0-0.1-0.1-0.1-0.1
			c0-0.1,0-0.1,0.1-0.1c0.1-0.1,0.2-0.2,0.4-0.3c0.1,0,0.1-0.1,0.2,0c0.1,0,0.1,0.1,0.2,0.1C162.8,78.3,162.9,78.1,163,77.9
			L163,77.9z"/>
		<path class="st6" d="M166.9,74.5c0.1-0.2,0.3-0.4,0.5-0.6c0.2-0.1,0.3-0.3,0.6-0.3c0.2-0.1,0.4-0.1,0.6,0c0.2,0,0.3,0.1,0.4,0.3
			c0.1,0.1,0.3,0.3,0.3,0.5c0,0.2,0,0.4-0.1,0.6c-0.1,0.2-0.3,0.4-0.5,0.6c-0.2,0.2-0.4,0.3-0.6,0.5c0.1,0.1,0.3,0.3,0.5,0.3
			c0.2,0,0.4,0,0.5-0.1c0.2-0.1,0.3-0.3,0.5-0.4c0.1-0.1,0.2-0.2,0.3-0.4c0,0,0.1-0.1,0.1-0.1c0.1,0,0.1,0,0.1,0.1
			c0.1,0.1,0.1,0.2,0.2,0.2c0,0,0.1,0.1,0.1,0.2c0,0.1-0.1,0.2-0.1,0.2c-0.1,0.2-0.3,0.4-0.5,0.6c-0.2,0.2-0.3,0.3-0.5,0.4
			c-0.2,0.1-0.4,0.2-0.6,0.2c-0.2,0-0.4,0-0.6-0.1c-0.2-0.1-0.4-0.2-0.5-0.3c-0.2-0.2-0.4-0.4-0.5-0.6c-0.2-0.3-0.3-0.7-0.3-1
			C166.7,74.9,166.8,74.7,166.9,74.5L166.9,74.5z M167.5,75c0,0.2,0.1,0.4,0.2,0.6c0.2-0.1,0.4-0.2,0.5-0.4c0.1-0.1,0.2-0.2,0.2-0.3
			c0-0.1,0.1-0.2,0-0.3c0-0.1-0.1-0.2-0.2-0.2c-0.1-0.1-0.2-0.1-0.3-0.1c-0.1,0-0.2,0.1-0.3,0.2C167.6,74.6,167.5,74.8,167.5,75
			L167.5,75z"/>
		<path class="st6" d="M159.8,80.7c0.1-0.1,0.2-0.2,0.3-0.3c0,0,0.1-0.1,0.2-0.1c0.1,0,0.1,0,0.1,0.1c0.1,0.1,0.2,0.3,0.3,0.4
			c0,0,0.1,0.1,0.1,0.2c0,0.1-0.1,0.1-0.2,0.2c-0.2,0.1-0.3,0.3-0.5,0.5c0,0.1-0.1,0.1-0.1,0.2c0.5,0.6,1,1.1,1.4,1.7
			c0,0,0.1,0.1,0.1,0.1c0,0,0,0.1-0.1,0.1c-0.2,0.1-0.3,0.3-0.5,0.4c0,0-0.1,0.1-0.1,0.1c0,0-0.1,0-0.1-0.1c-0.7-0.8-1.3-1.5-2-2.3
			c0,0-0.1-0.1,0-0.1c0,0,0-0.1,0.1-0.1c0.1-0.1,0.2-0.2,0.4-0.3c0,0,0.1-0.1,0.1-0.1c0,0,0.1,0,0.1,0c0.1,0.1,0.2,0.1,0.3,0.2
			C159.6,81.1,159.7,80.9,159.8,80.7L159.8,80.7z"/>
		<path class="st6" d="M160.7,79.8C160.7,79.8,160.7,79.8,160.7,79.8c0.2-0.2,0.4-0.3,0.5-0.5c0,0,0.1-0.1,0.1-0.1
			c0.1,0,0.1,0.1,0.1,0.1c0.6,0.7,1.3,1.5,1.9,2.2c0,0,0.1,0.1,0.1,0.1c0,0.1,0,0.1-0.1,0.1c-0.2,0.1-0.3,0.3-0.5,0.4
			c0,0-0.1,0.1-0.1,0.1c0,0-0.1,0-0.1-0.1c-0.7-0.8-1.3-1.5-2-2.3C160.7,80,160.6,80,160.7,79.8C160.6,79.9,160.6,79.9,160.7,79.8
			L160.7,79.8z"/>
		<path class="st6" d="M169.9,78.1c0.2-0.2,0.5-0.4,0.8-0.6c0.1,0,0.2-0.1,0.3-0.1c0,0,0.1,0,0.1,0c0.1,0,0.1,0.1,0.1,0.1
			c0.1,0.1,0.2,0.3,0.3,0.4c0.2,0.3,0.3,0.6,0.4,0.9c0.1,0.4,0.2,0.8,0.1,1.1c0,0.1,0,0.1-0.1,0.2c0,0-0.1,0.1-0.1,0
			c0,0-0.1-0.1-0.1-0.1c-0.1-0.3-0.2-0.6-0.3-0.9c-0.1-0.2-0.2-0.4-0.3-0.6c-0.1-0.1-0.1-0.2-0.2-0.2c-0.1,0-0.2,0-0.2,0
			c-0.1,0.1-0.3,0.1-0.4,0.2c-0.4,0.3-0.7,0.7-1,1c0,0-0.1,0-0.1,0c0,0-0.1,0-0.1-0.1c0-0.1,0-0.1,0-0.2c0.1-0.3,0.3-0.6,0.5-0.9
			C169.7,78.3,169.8,78.2,169.9,78.1L169.9,78.1z"/>
		<path class="st6" d="M159.4,87.6c0,0,0-0.1,0.1-0.1c0,0,0.1,0,0.2,0c0.4-0.1,0.7-0.1,1-0.2c1.7-0.5,3.2-1.2,4.7-2.1
			c0.8-0.5,1.5-1.1,2.2-1.8c0.6-0.6,1.2-1.3,1.8-2.1c0.4-0.6,0.8-1.3,1.2-2c0.1-0.1,0.2-0.2,0.3-0.2c0.1,0,0.1,0.1,0.1,0.2
			c0,0.1,0,0.1,0,0.2c-0.1,0.5-0.3,0.9-0.5,1.4c-0.3,0.7-0.7,1.3-1.1,1.9c-0.5,0.8-1.1,1.5-1.8,2.1l-0.3,0.3
			c-0.1,0.1-0.2,0.2-0.3,0.2c-0.7,0.5-1.4,1-2.2,1.4c-0.7,0.3-1.5,0.6-2.3,0.8c-0.9,0.2-1.8,0.3-2.8,0.3c0,0-0.1,0-0.1,0
			C159.5,87.7,159.4,87.7,159.4,87.6L159.4,87.6z"/>
	</g>
	<g class="st1">
		<path class="st6" d="M170.4,95.5c0.2-0.4,0.7-0.7,1.1-0.8c0.3,0,0.6,0,0.8,0.2c0.3,0.2,0.5,0.5,0.7,0.8c0.1,0.3,0.2,0.7,0.2,1.1
			c0,0.3-0.1,0.6-0.3,0.9c-0.2,0.2-0.4,0.4-0.6,0.4c-0.3,0.1-0.7,0.1-1,0c0.1,0.5,0.3,0.9,0.4,1.4c0,0,0,0.1,0,0.1
			c0,0-0.1,0.1-0.1,0.1c-0.2,0.1-0.4,0.1-0.6,0.2c0,0-0.1,0-0.1,0c0,0,0-0.1-0.1-0.1l-1.4-4.2c0-0.1,0-0.1,0.1-0.2
			c0.1,0,0.3-0.1,0.4-0.1c0,0,0.1,0,0.1,0c0,0,0.1,0,0.1,0.1C170.3,95.4,170.4,95.4,170.4,95.5L170.4,95.5z M170.6,95.9
			c0.2,0.5,0.4,1.1,0.5,1.6c0.3,0.1,0.6,0,0.8-0.1c0.2-0.1,0.3-0.2,0.3-0.4c0-0.3,0-0.5-0.1-0.8c-0.1-0.2-0.1-0.3-0.2-0.5
			c-0.1-0.1-0.1-0.2-0.2-0.2c-0.1-0.1-0.3-0.1-0.4,0C171,95.6,170.8,95.7,170.6,95.9L170.6,95.9z"/>
		<path class="st6" d="M178.6,92.5c0.2-0.1,0.3-0.2,0.5-0.3c0.2-0.1,0.4-0.1,0.6-0.1c0.2,0,0.3,0.1,0.4,0.2c0.2-0.2,0.3-0.4,0.5-0.5
			c0.2-0.1,0.3-0.2,0.5-0.3c0.2,0,0.3-0.1,0.5,0c0.2,0,0.3,0.1,0.4,0.3c0.1,0.1,0.2,0.2,0.2,0.4c0.2,0.8,0.5,1.5,0.7,2.3
			c0,0,0,0.1,0,0.1c0,0-0.1,0-0.1,0.1c-0.2,0.1-0.4,0.1-0.6,0.2c0,0-0.1,0-0.1,0c0,0-0.1-0.1-0.1-0.1c-0.2-0.7-0.4-1.4-0.7-2
			c0-0.1-0.1-0.2-0.2-0.2c-0.1,0-0.2,0-0.3,0c-0.2,0.1-0.5,0.2-0.6,0.4c0.2,0.8,0.5,1.5,0.7,2.3c0,0,0,0.1,0,0.1c0,0-0.1,0-0.1,0.1
			c-0.2,0.1-0.4,0.1-0.6,0.2c0,0-0.1,0-0.1,0c0,0-0.1-0.1-0.1-0.1c-0.2-0.7-0.4-1.3-0.7-2c0-0.1-0.1-0.2-0.2-0.3c-0.1,0-0.2,0-0.3,0
			c-0.2,0.1-0.5,0.2-0.7,0.4c0.2,0.8,0.5,1.5,0.7,2.3c0,0,0,0.1,0,0.1c0,0-0.1,0-0.1,0.1c-0.2,0.1-0.4,0.1-0.6,0.2c0,0-0.1,0-0.1,0
			c0,0-0.1-0.1-0.1-0.1c-0.3-1-0.6-1.9-0.9-2.9c0,0,0-0.1,0-0.1c0,0,0.1-0.1,0.1-0.1c0.2,0,0.3-0.1,0.5-0.1c0.1,0,0.1,0,0.2,0.1
			c0,0.1,0.1,0.1,0.1,0.2C178.3,92.8,178.5,92.7,178.6,92.5L178.6,92.5z"/>
		<path class="st6" d="M183.5,90.9c0.2-0.2,0.4-0.3,0.7-0.3c0.2-0.1,0.4-0.1,0.6-0.1c0.2,0,0.4,0.1,0.6,0.2c0.1,0.1,0.2,0.3,0.3,0.4
			c0.1,0.2,0.1,0.4,0.1,0.6c0,0.2-0.2,0.4-0.3,0.5c-0.2,0.2-0.4,0.3-0.7,0.4c-0.3,0.1-0.5,0.2-0.8,0.2c0.1,0.2,0.2,0.4,0.4,0.5
			c0.2,0.1,0.3,0.1,0.5,0.1c0.2,0,0.4-0.1,0.6-0.2c0.1-0.1,0.3-0.2,0.4-0.2c0,0,0.1-0.1,0.1,0c0,0,0.1,0.1,0.1,0.1
			c0,0.1,0.1,0.2,0.1,0.3c0,0.1,0,0.1,0,0.2c0,0.1-0.1,0.1-0.2,0.2c-0.2,0.1-0.4,0.3-0.6,0.3c-0.2,0.1-0.4,0.1-0.6,0.2
			c-0.2,0-0.4,0-0.6-0.1c-0.2-0.1-0.4-0.2-0.5-0.3c-0.2-0.1-0.3-0.3-0.4-0.5c-0.1-0.2-0.2-0.5-0.2-0.7c-0.1-0.4,0-0.7,0.1-1.1
			C183.2,91.2,183.4,91.1,183.5,90.9L183.5,90.9z M183.9,91.6c-0.1,0.2-0.1,0.4,0,0.6c0.2,0,0.4-0.1,0.6-0.1c0.1,0,0.2-0.1,0.3-0.2
			c0.1-0.1,0.1-0.1,0.1-0.2c0-0.1,0-0.2-0.1-0.3c0-0.1-0.1-0.2-0.2-0.2c-0.1,0-0.3,0-0.4,0C184.1,91.3,183.9,91.4,183.9,91.6
			L183.9,91.6z"/>
		<path class="st6" d="M174.6,93.8c0.1-0.1,0.2-0.2,0.4-0.2c0.1,0,0.1-0.1,0.2,0c0,0,0.1,0.1,0.1,0.1c0.1,0.2,0.1,0.3,0.2,0.5
			c0,0.1,0,0.1,0,0.2c-0.1,0.1-0.1,0.1-0.2,0.1c-0.2,0-0.4,0.2-0.6,0.3c-0.1,0-0.1,0.1-0.2,0.1c0.2,0.7,0.5,1.4,0.7,2.1
			c0,0,0,0.1,0,0.1c0,0-0.1,0.1-0.1,0.1c-0.2,0.1-0.4,0.1-0.6,0.2c0,0-0.1,0-0.1,0c0,0-0.1-0.1-0.1-0.1c-0.3-1-0.6-1.9-0.9-2.9
			c0,0,0-0.1,0-0.1c0,0,0.1-0.1,0.1-0.1c0.1,0,0.3-0.1,0.4-0.1c0,0,0.1,0,0.1,0c0,0,0.1,0,0.1,0.1c0.1,0.1,0.1,0.2,0.2,0.3
			C174.3,94.2,174.4,94,174.6,93.8L174.6,93.8z"/>
		<path class="st6" d="M175.7,93.4C175.7,93.4,175.8,93.4,175.7,93.4c0.3-0.1,0.5-0.2,0.7-0.2c0,0,0.1,0,0.1,0c0,0,0.1,0.1,0.1,0.1
			c0.3,0.9,0.6,1.9,0.9,2.8c0,0,0,0.1,0,0.1c0,0-0.1,0.1-0.1,0.1c-0.2,0.1-0.4,0.1-0.6,0.2c0,0-0.1,0-0.1,0c0,0-0.1-0.1-0.1-0.1
			c-0.3-0.9-0.6-1.9-0.9-2.8C175.7,93.6,175.7,93.5,175.7,93.4C175.7,93.5,175.7,93.4,175.7,93.4L175.7,93.4z"/>
		<path class="st6" d="M185,95.4c0.3-0.1,0.6-0.2,1-0.2c0.1,0,0.2,0,0.3,0c0,0,0.1,0,0.1,0c0,0,0.1,0.1,0.1,0.1
			c0.1,0.2,0.1,0.3,0.1,0.5c0,0.3,0.1,0.6,0,1c0,0.4-0.1,0.8-0.3,1.1c0,0.1-0.1,0.1-0.1,0.2c0,0-0.1,0-0.1,0c0,0,0-0.1,0-0.1
			c0-0.3,0-0.7,0-1c0-0.2,0-0.4-0.1-0.7c0-0.1-0.1-0.2-0.1-0.3c-0.1-0.1-0.1-0.1-0.2-0.1c-0.1,0-0.3,0-0.4,0.1
			c-0.5,0.1-0.9,0.3-1.3,0.5c0,0-0.1,0-0.1,0c0,0,0-0.1,0-0.1c0-0.1,0-0.1,0.1-0.1c0.2-0.3,0.5-0.5,0.8-0.6
			C184.6,95.6,184.8,95.5,185,95.4L185,95.4z"/>
		<path class="st6" d="M171.5,100.1c0,0,0.1-0.1,0.1-0.1c0.1,0,0.1,0,0.2,0c0.4,0.1,0.7,0.1,1.1,0.2c1.7,0.2,3.4,0.2,5.1-0.2
			c0.9-0.2,1.8-0.4,2.7-0.8c0.8-0.3,1.7-0.8,2.4-1.2c0.6-0.4,1.3-0.9,1.8-1.4c0.1-0.1,0.3-0.1,0.4,0c0.1,0,0.1,0.1,0.1,0.2
			c0,0.1,0,0.1-0.1,0.2c-0.3,0.4-0.6,0.8-1,1.1c-0.5,0.5-1.1,1-1.7,1.4c-0.8,0.5-1.6,0.9-2.5,1.2l-0.4,0.1c-0.1,0-0.3,0.1-0.4,0.1
			c-0.8,0.2-1.7,0.4-2.6,0.4c-0.8,0-1.6,0-2.4-0.2c-0.9-0.2-1.8-0.4-2.6-0.8c0,0-0.1,0-0.1-0.1C171.5,100.2,171.5,100.2,171.5,100.1
			L171.5,100.1z"/>
	</g>
	<g class="st1">
		<path class="st6" d="M171.4,111.5c0.2-0.4,0.7-0.7,1.1-0.8c0.3,0,0.6,0,0.8,0.2c0.3,0.2,0.5,0.5,0.7,0.8c0.1,0.3,0.2,0.7,0.2,1.1
			c0,0.3-0.1,0.6-0.3,0.9c-0.2,0.2-0.4,0.4-0.6,0.4c-0.3,0.1-0.7,0.1-1,0c0.1,0.5,0.3,0.9,0.4,1.4c0,0,0,0.1,0,0.1
			c0,0-0.1,0.1-0.1,0.1c-0.2,0.1-0.4,0.1-0.6,0.2c0,0-0.1,0-0.1,0c0,0,0-0.1-0.1-0.1l-1.4-4.2c0-0.1,0-0.1,0.1-0.2
			c0.1,0,0.3-0.1,0.4-0.1c0,0,0.1,0,0.1,0c0,0,0.1,0,0.1,0.1C171.3,111.4,171.4,111.4,171.4,111.5L171.4,111.5z M171.6,111.9
			c0.2,0.5,0.4,1.1,0.5,1.6c0.3,0.1,0.6,0,0.8-0.1c0.2-0.1,0.3-0.2,0.3-0.4c0-0.3,0-0.5-0.1-0.8c-0.1-0.2-0.1-0.3-0.2-0.5
			c-0.1-0.1-0.1-0.2-0.2-0.2c-0.1-0.1-0.3-0.1-0.4,0C172,111.6,171.8,111.7,171.6,111.9L171.6,111.9z"/>
		<path class="st6" d="M179.6,108.5c0.2-0.1,0.3-0.2,0.5-0.3c0.2-0.1,0.4-0.1,0.6-0.1c0.2,0,0.3,0.1,0.4,0.2
			c0.2-0.2,0.3-0.4,0.5-0.5c0.2-0.1,0.3-0.2,0.5-0.3c0.2,0,0.3-0.1,0.5,0c0.2,0,0.3,0.1,0.4,0.3c0.1,0.1,0.2,0.2,0.2,0.4
			c0.2,0.8,0.5,1.5,0.7,2.3c0,0,0,0.1,0,0.1c0,0-0.1,0-0.1,0.1c-0.2,0.1-0.4,0.1-0.6,0.2c0,0-0.1,0-0.1,0c0,0-0.1-0.1-0.1-0.1
			c-0.2-0.7-0.4-1.4-0.7-2c0-0.1-0.1-0.2-0.2-0.2c-0.1,0-0.2,0-0.3,0c-0.2,0.1-0.5,0.2-0.6,0.4c0.2,0.8,0.5,1.5,0.7,2.3
			c0,0,0,0.1,0,0.1c0,0-0.1,0-0.1,0.1c-0.2,0.1-0.4,0.1-0.6,0.2c0,0-0.1,0-0.1,0c0,0-0.1-0.1-0.1-0.1c-0.2-0.7-0.4-1.3-0.7-2
			c0-0.1-0.1-0.2-0.2-0.3c-0.1,0-0.2,0-0.3,0c-0.2,0.1-0.5,0.2-0.7,0.4c0.2,0.8,0.5,1.5,0.7,2.3c0,0,0,0.1,0,0.1c0,0-0.1,0-0.1,0.1
			c-0.2,0.1-0.4,0.1-0.6,0.2c0,0-0.1,0-0.1,0c0,0-0.1-0.1-0.1-0.1c-0.3-1-0.6-1.9-0.9-2.9c0,0,0-0.1,0-0.1c0,0,0.1-0.1,0.1-0.1
			c0.2,0,0.3-0.1,0.5-0.1c0.1,0,0.1,0,0.2,0.1c0,0.1,0.1,0.1,0.1,0.2C179.3,108.8,179.5,108.7,179.6,108.5L179.6,108.5z"/>
		<path class="st6" d="M184.5,106.9c0.2-0.2,0.4-0.3,0.7-0.3c0.2-0.1,0.4-0.1,0.6-0.1c0.2,0,0.4,0.1,0.6,0.2
			c0.1,0.1,0.2,0.3,0.3,0.4c0.1,0.2,0.1,0.4,0.1,0.6c0,0.2-0.2,0.4-0.3,0.5c-0.2,0.2-0.4,0.3-0.7,0.4c-0.3,0.1-0.5,0.2-0.8,0.2
			c0.1,0.2,0.2,0.4,0.4,0.5c0.2,0.1,0.3,0.1,0.5,0.1c0.2,0,0.4-0.1,0.6-0.2c0.1-0.1,0.3-0.2,0.4-0.2c0,0,0.1-0.1,0.1,0
			c0,0,0.1,0.1,0.1,0.1c0,0.1,0.1,0.2,0.1,0.3c0,0.1,0,0.1,0,0.2c0,0.1-0.1,0.1-0.2,0.2c-0.2,0.1-0.4,0.3-0.6,0.3
			c-0.2,0.1-0.4,0.1-0.6,0.2c-0.2,0-0.4,0-0.6-0.1c-0.2-0.1-0.4-0.2-0.5-0.3c-0.2-0.1-0.3-0.3-0.4-0.5c-0.1-0.2-0.2-0.5-0.2-0.7
			c-0.1-0.4,0-0.7,0.1-1.1C184.2,107.2,184.4,107.1,184.5,106.9L184.5,106.9z M184.9,107.6c-0.1,0.2-0.1,0.4,0,0.6
			c0.2,0,0.4-0.1,0.6-0.1c0.1,0,0.2-0.1,0.3-0.2c0.1-0.1,0.1-0.1,0.1-0.2c0-0.1,0-0.2-0.1-0.3c0-0.1-0.1-0.2-0.2-0.2
			c-0.1,0-0.3,0-0.4,0C185.1,107.3,184.9,107.4,184.9,107.6L184.9,107.6z"/>
		<path class="st6" d="M175.6,109.8c0.1-0.1,0.2-0.2,0.4-0.2c0.1,0,0.1-0.1,0.2,0c0,0,0.1,0.1,0.1,0.1c0.1,0.2,0.1,0.3,0.2,0.5
			c0,0.1,0,0.1,0,0.2c-0.1,0.1-0.1,0.1-0.2,0.1c-0.2,0-0.4,0.2-0.6,0.3c-0.1,0-0.1,0.1-0.2,0.1c0.2,0.7,0.5,1.4,0.7,2.1
			c0,0,0,0.1,0,0.1c0,0-0.1,0.1-0.1,0.1c-0.2,0.1-0.4,0.1-0.6,0.2c0,0-0.1,0-0.1,0c0,0-0.1-0.1-0.1-0.1c-0.3-1-0.6-1.9-0.9-2.9
			c0,0,0-0.1,0-0.1c0,0,0.1-0.1,0.1-0.1c0.1,0,0.3-0.1,0.4-0.1c0,0,0.1,0,0.1,0c0,0,0.1,0,0.1,0.1c0.1,0.1,0.1,0.2,0.2,0.3
			C175.3,110.2,175.4,110,175.6,109.8L175.6,109.8z"/>
		<path class="st6" d="M176.7,109.4C176.7,109.4,176.8,109.4,176.7,109.4c0.3-0.1,0.5-0.2,0.7-0.2c0,0,0.1,0,0.1,0
			c0,0,0.1,0.1,0.1,0.1c0.3,0.9,0.6,1.9,0.9,2.8c0,0,0,0.1,0,0.1c0,0-0.1,0.1-0.1,0.1c-0.2,0.1-0.4,0.1-0.6,0.2c0,0-0.1,0-0.1,0
			c0,0-0.1-0.1-0.1-0.1c-0.3-0.9-0.6-1.9-0.9-2.8C176.7,109.6,176.7,109.5,176.7,109.4C176.7,109.5,176.7,109.4,176.7,109.4
			L176.7,109.4z"/>
		<path class="st6" d="M186,111.4c0.3-0.1,0.6-0.2,1-0.2c0.1,0,0.2,0,0.3,0c0,0,0.1,0,0.1,0c0,0,0.1,0.1,0.1,0.1
			c0.1,0.2,0.1,0.3,0.1,0.5c0,0.3,0.1,0.6,0,1c0,0.4-0.1,0.8-0.3,1.1c0,0.1-0.1,0.1-0.1,0.2c0,0-0.1,0-0.1,0c0,0,0-0.1,0-0.1
			c0-0.3,0-0.7,0-1c0-0.2,0-0.4-0.1-0.7c0-0.1-0.1-0.2-0.1-0.3c-0.1-0.1-0.1-0.1-0.2-0.1c-0.1,0-0.3,0-0.4,0.1
			c-0.5,0.1-0.9,0.3-1.3,0.5c0,0-0.1,0-0.1,0c0,0,0-0.1,0-0.1c0-0.1,0-0.1,0.1-0.1c0.2-0.3,0.5-0.5,0.8-0.6
			C185.6,111.6,185.8,111.5,186,111.4L186,111.4z"/>
		<path class="st6" d="M172.5,116.1c0,0,0.1-0.1,0.1-0.1c0.1,0,0.1,0,0.2,0c0.4,0.1,0.7,0.1,1.1,0.2c1.7,0.2,3.4,0.2,5.1-0.2
			c0.9-0.2,1.8-0.4,2.7-0.8c0.8-0.3,1.7-0.8,2.4-1.2c0.6-0.4,1.3-0.9,1.8-1.4c0.1-0.1,0.3-0.1,0.4,0c0.1,0,0.1,0.1,0.1,0.2
			c0,0.1,0,0.1-0.1,0.2c-0.3,0.4-0.6,0.8-1,1.1c-0.5,0.5-1.1,1-1.7,1.4c-0.8,0.5-1.6,0.9-2.5,1.2l-0.4,0.1c-0.1,0-0.3,0.1-0.4,0.1
			c-0.8,0.2-1.7,0.4-2.6,0.4c-0.8,0-1.6,0-2.4-0.2c-0.9-0.2-1.8-0.4-2.6-0.8c0,0-0.1,0-0.1-0.1C172.5,116.2,172.5,116.2,172.5,116.1
			L172.5,116.1z"/>
	</g>
	<g class="st1">
		<path class="st7" d="M111.3,169.4c-10.2,2.5-22.8,0.9-32.5-3.2c-13.7-5.7-23.9-15.8-29.7-28.1c-0.5-1,0.6-1.6,1.2-0.7
			c7.6,10,18.6,18.7,31.4,24c8.7,3.6,18.9,5.7,29.2,5.7C112.5,167.1,113,169,111.3,169.4z"/>
		<path class="st7" d="M116.1,167.1c-0.5-1.7-6.4-3.3-9-4.1c-0.8-0.2-0.6-0.9,0.2-1.1c5.8-1.3,12.7,2.7,13.1,4.1
			c0.4,1.4-3.7,8.3-9.4,10.1c-0.9,0.3-1.4-0.3-0.8-0.9C112.3,173.2,116.6,168.8,116.1,167.1z"/>
	</g>
	<g class="st1">
		<path d="M73.6,174.7l-4.5-2.3l-1.6,3.1l5.3,2.7l-1,1.9l-7.6-3.9l5.8-11.4l7.6,3.9l-1,1.9l-5.3-2.7l-1.4,2.7l4.5,2.3L73.6,174.7z"
			/>
		<path d="M78.7,175.1l1.2,0.6c0.6,0.3,1.1,0.4,1.5,0.2s0.8-0.5,1-0.9c0.2-0.5,0.3-0.9,0.1-1.3c-0.1-0.4-0.5-0.7-0.9-1
			c-0.4-0.2-0.9-0.3-1.3-0.2c-0.4,0.1-0.7,0.3-0.9,0.7l-2.3-1.2c0.3-0.6,0.7-1,1.3-1.4c0.6-0.3,1.2-0.4,1.9-0.4
			c0.7,0,1.4,0.2,2.1,0.6c1.2,0.6,2,1.4,2.4,2.3c0.4,0.9,0.3,1.9-0.2,2.9c-0.3,0.5-0.7,0.9-1.2,1.2c-0.5,0.3-1.1,0.4-1.8,0.4
			c0.5,0.6,0.8,1.1,0.9,1.8c0.1,0.6,0,1.2-0.4,1.9c-0.5,1-1.3,1.6-2.4,1.9s-2.2,0-3.4-0.6c-1.1-0.6-1.9-1.4-2.3-2.3
			c-0.4-1-0.4-1.9,0.1-2.9l2.3,1.2c-0.2,0.4-0.2,0.9-0.1,1.3c0.2,0.4,0.5,0.8,1,1c0.5,0.3,1,0.3,1.5,0.2c0.5-0.1,0.8-0.4,1-0.9
			c0.6-1.1,0.2-2-1-2.7l-1.2-0.6L78.7,175.1z"/>
	</g>
</g>
<g id="Capa_3" class="st0">
	<g class="st1">
		<path class="st8" d="M83.9,126.1V90.9c0-11-9-19.9-19.9-19.9H41.1c-11.4,0-20.7,9.3-20.7,20.7v34.7c-5.1,0.1-9.3,4.5-9.3,9.9
			s4.1,9.8,9.3,9.9v26.1c0,1.5,1.2,2.7,2.7,2.7h18.4c0.6,0,1-0.7,0.7-1.2c-0.2-0.4-0.4-0.9-0.4-1.4v0c0-5.5,4.5-9.9,9.9-9.9h2.9
			c4.1,0,7.4,3.4,7.4,7.4v2.5c0,0.6-0.2,1.2-0.5,1.6c-0.3,0.4,0,0.9,0.5,0.9h19.2c1.5,0,2.7-1.2,2.7-2.7v-26.4
			c5.2,0,9.5-4.4,9.5-9.9S89.2,126.1,83.9,126.1z"/>
		<ellipse class="st9" cx="36.6" cy="94.2" rx="10.8" ry="11.9"/>
		<ellipse class="st10" cx="36.5" cy="94.5" rx="9.6" ry="10.9"/>
		<ellipse cx="36.5" cy="90.1" rx="5.1" ry="6.9"/>
		<ellipse class="st9" cx="68" cy="94.4" rx="10.8" ry="11.9"/>
		<ellipse class="st10" cx="68.2" cy="94.5" rx="9.6" ry="10.9"/>
		<ellipse class="st9" cx="68.4" cy="90.1" rx="5.1" ry="6.9"/>
		<g>
			<path class="st7" d="M74.9,116.4c-6.1,4.5-15,6.9-22.7,6.9c-10.7,0-20.4-4-27.7-10.6c-0.6-0.5-0.1-1.2,0.6-0.8
				c7.9,4.6,17.7,7.4,27.8,7.4c6.8,0,14.3-1.4,21.2-4.3C75,114.5,75.9,115.6,74.9,116.4z"/>
			<path class="st7" d="M77.4,113.4c-0.8-1-5.2-0.5-7.2-0.2c-0.6,0.1-0.7-0.5-0.2-0.8c3.5-2.5,9.3-1.8,9.9-0.9
				c0.7,0.8-0.2,6.6-3.5,9.4c-0.5,0.4-1,0.2-0.8-0.4C76.5,118.6,78.2,114.4,77.4,113.4z"/>
		</g>
	</g>
	<g class="st1">
		<path class="st8" d="M230.9,128.1V92.9c0-11-9-19.9-19.9-19.9h-22.9c-11.4,0-20.7,9.3-20.7,20.7v34.7c-5.1,0.1-9.3,4.5-9.3,9.9
			s4.1,9.8,9.3,9.9v26.1c0,1.5,1.2,2.7,2.7,2.7h18.4c0.6,0,1-0.7,0.7-1.2c-0.2-0.4-0.4-0.9-0.4-1.4v0c0-5.5,4.5-9.9,9.9-9.9h2.9
			c4.1,0,7.4,3.4,7.4,7.4v2.5c0,0.6-0.2,1.2-0.5,1.6c-0.3,0.4,0,0.9,0.5,0.9h19.2c1.5,0,2.7-1.2,2.7-2.7v-26.4
			c5.2,0,9.5-4.4,9.5-9.9S236.2,128.1,230.9,128.1z"/>
		<ellipse class="st9" cx="183.6" cy="96.2" rx="10.8" ry="11.9"/>
		<ellipse class="st10" cx="183.5" cy="96.5" rx="9.6" ry="10.9"/>
		<ellipse cx="183.5" cy="92.1" rx="5.1" ry="6.9"/>
		<ellipse class="st9" cx="215" cy="96.4" rx="10.8" ry="11.9"/>
		<ellipse class="st10" cx="215.2" cy="96.5" rx="9.6" ry="10.9"/>
		<ellipse class="st9" cx="215.4" cy="92.1" rx="5.1" ry="6.9"/>
		<g>
			<path class="st7" d="M221.9,118.4c-6.1,4.5-15,6.9-22.7,6.9c-10.7,0-20.4-4-27.7-10.6c-0.6-0.5-0.1-1.2,0.6-0.8
				c7.9,4.6,17.7,7.4,27.8,7.4c6.8,0,14.3-1.4,21.2-4.3C222,116.5,222.9,117.6,221.9,118.4z"/>
			<path class="st7" d="M224.4,115.4c-0.8-1-5.2-0.5-7.2-0.2c-0.6,0.1-0.7-0.5-0.2-0.8c3.5-2.5,9.3-1.8,9.9-0.9
				c0.7,0.8-0.2,6.6-3.5,9.4c-0.5,0.4-1,0.2-0.8-0.4C223.5,120.6,225.2,116.4,224.4,115.4z"/>
		</g>
	</g>
	<rect x="112.7" y="111.7" class="st11" width="34.3" height="16.7"/>
	<text transform="matrix(1 0 0 1 112.6665 125.166)" class="st1 st12 st13">2M</text>
	<g class="st1">
		<g>
			<line class="st14" x1="105.7" y1="134.5" x2="145.3" y2="135.5"/>
			<g>
				<path d="M112.4,139.5c0.2-0.2,0.1-0.5-0.1-0.7l-6.4-4.3l6.5-4c0.2-0.1,0.3-0.5,0.2-0.7c-0.1-0.2-0.5-0.3-0.7-0.2l-7.2,4.4
					c-0.1,0.1-0.2,0.2-0.2,0.4s0.1,0.3,0.2,0.4l7,4.7c0.1,0.1,0.2,0.1,0.3,0.1C112.2,139.7,112.3,139.6,112.4,139.5z"/>
			</g>
			<g>
				<path d="M138.4,140.1c-0.1-0.2-0.1-0.5,0.2-0.7l6.5-4l-6.4-4.3c-0.2-0.2-0.3-0.5-0.1-0.7c0.2-0.2,0.5-0.3,0.7-0.1l7,4.7
					c0.1,0.1,0.2,0.3,0.2,0.4s-0.1,0.3-0.2,0.4l-7.2,4.4c-0.1,0.1-0.2,0.1-0.3,0.1C138.6,140.3,138.4,140.3,138.4,140.1z"/>
			</g>
		</g>
	</g>
</g>
<g id="Capa_4">
	<g>
		<g>
			<path d="M-3-0.3h3.9V25H-3V-0.3z M3.3,25h2.2V-0.3H3.3V25z M7.2,25h2.2V-0.3H7.2V25z M12.3,25h4.8V-0.3h-4.8V25z M21,25h2.4V-0.3
				H21V25z M27.2,25h10V-0.3h-10V25z M53.3,25h3.3V-0.3h-3.3V25z M59.5-0.3V25H64V-0.3H59.5z M41.2,25h2.2V-0.3h-2.2V25z M46.5,25
				h2.2V-0.3h-2.2V25z M46.5,25"/>
		</g>
		<g>
			<path d="M64-0.3h3.9V25H64V-0.3z M70.3,25h2.2V-0.3h-2.2V25z M74.2,25h2.2V-0.3h-2.2V25z M79.3,25h4.8V-0.3h-4.8V25z M88,25h2.4
				V-0.3H88V25z M94.2,25h10V-0.3h-10V25z M120.3,25h3.3V-0.3h-3.3V25z M126.5-0.3V25h4.5V-0.3H126.5z M108.2,25h2.2V-0.3h-2.2V25z
				 M113.5,25h2.2V-0.3h-2.2V25z M113.5,25"/>
		</g>
		<g>
			<path d="M131-0.3h3.9V25H131V-0.3z M137.3,25h2.2V-0.3h-2.2V25z M141.2,25h2.2V-0.3h-2.2V25z M146.3,25h4.8V-0.3h-4.8V25z
				 M155,25h2.4V-0.3H155V25z M161.2,25h10V-0.3h-10V25z M187.3,25h3.3V-0.3h-3.3V25z M193.5-0.3V25h4.5V-0.3H193.5z M175.2,25h2.2
				V-0.3h-2.2V25z M180.5,25h2.2V-0.3h-2.2V25z M180.5,25"/>
		</g>
		<g>
			<path d="M198-0.3h3.9V25H198V-0.3z M204.3,25h2.2V-0.3h-2.2V25z M208.2,25h2.2V-0.3h-2.2V25z M213.3,25h4.8V-0.3h-4.8V25z
				 M222,25h2.4V-0.3H222V25z M228.2,25h10V-0.3h-10V25z M254.3,25h3.3V-0.3h-3.3V25z M260.5-0.3V25h4.5V-0.3H260.5z M242.2,25h2.2
				V-0.3h-2.2V25z M247.5,25h2.2V-0.3h-2.2V25z M247.5,25"/>
		</g>
	</g>
	<g>
		<g>
			<path d="M-9,224.7h3.9V250H-9V224.7z M-2.7,250h2.2v-25.3h-2.2V250z M1.2,250h2.2v-25.3H1.2V250z M6.3,250h4.8v-25.3H6.3V250z
				 M15,250h2.4v-25.3H15V250z M21.2,250h10v-25.3h-10V250z M47.3,250h3.3v-25.3h-3.3V250z M53.5,224.7V250H58v-25.3H53.5z
				 M35.2,250h2.2v-25.3h-2.2V250z M40.5,250h2.2v-25.3h-2.2V250z M40.5,250"/>
		</g>
		<g>
			<path d="M58,224.7h3.9V250H58V224.7z M64.3,250h2.2v-25.3h-2.2V250z M68.2,250h2.2v-25.3h-2.2V250z M73.3,250h4.8v-25.3h-4.8V250
				z M82,250h2.4v-25.3H82V250z M88.2,250h10v-25.3h-10V250z M114.3,250h3.3v-25.3h-3.3V250z M120.5,224.7V250h4.5v-25.3H120.5z
				 M102.2,250h2.2v-25.3h-2.2V250z M107.5,250h2.2v-25.3h-2.2V250z M107.5,250"/>
		</g>
		<g>
			<path d="M125,224.7h3.9V250H125V224.7z M131.3,250h2.2v-25.3h-2.2V250z M135.2,250h2.2v-25.3h-2.2V250z M140.3,250h4.8v-25.3
				h-4.8V250z M149,250h2.4v-25.3H149V250z M155.2,250h10v-25.3h-10V250z M181.3,250h3.3v-25.3h-3.3V250z M187.5,224.7V250h4.5
				v-25.3H187.5z M169.2,250h2.2v-25.3h-2.2V250z M174.5,250h2.2v-25.3h-2.2V250z M174.5,250"/>
		</g>
		<g>
			<path d="M192,224.7h3.9V250H192V224.7z M198.3,250h2.2v-25.3h-2.2V250z M202.2,250h2.2v-25.3h-2.2V250z M207.3,250h4.8v-25.3
				h-4.8V250z M216,250h2.4v-25.3H216V250z M222.2,250h10v-25.3h-10V250z M248.3,250h3.3v-25.3h-3.3V250z M254.5,224.7V250h4.5
				v-25.3H254.5z M236.2,250h2.2v-25.3h-2.2V250z M241.5,250h2.2v-25.3h-2.2V250z M241.5,250"/>
		</g>
	</g>
	<g>
		<line class="st15" x1="244" y1="210" x2="229" y2="222"/>
	</g>
	<g>
		<line class="st15" x1="244" y1="201" x2="217.8" y2="222"/>
	</g>
	<g>
		<line class="st15" x1="244" y1="192" x2="206.5" y2="222"/>
	</g>
	<g>
		<line class="st15" x1="244" y1="183" x2="195.2" y2="222"/>
	</g>
	<g>
		<line class="st15" x1="244" y1="174" x2="184" y2="222"/>
	</g>
	<g>
		<line class="st15" x1="244" y1="165" x2="172.8" y2="222"/>
	</g>
	<g>
		<line class="st15" x1="244" y1="156" x2="161.5" y2="222"/>
	</g>
	<g>
		<line class="st15" x1="244" y1="147" x2="150.2" y2="222"/>
	</g>
	<g>
		<line class="st15" x1="244" y1="138" x2="139" y2="222"/>
	</g>
	<g>
		<line class="st15" x1="244" y1="129" x2="127.8" y2="222"/>
	</g>
	<g>
		<line class="st15" x1="244" y1="120" x2="116.5" y2="222"/>
	</g>
	<g>
		<line class="st15" x1="244" y1="111" x2="105.2" y2="222"/>
	</g>
	<g>
		<line class="st15" x1="244" y1="102" x2="94" y2="222"/>
	</g>
	<g>
		<line class="st15" x1="244" y1="93" x2="82.8" y2="222"/>
	</g>
	<g>
		<line class="st15" x1="244" y1="84" x2="71.5" y2="222"/>
	</g>
	<g>
		<line class="st15" x1="244" y1="75" x2="60.2" y2="222"/>
	</g>
	<g>
		<line class="st15" x1="244" y1="66" x2="49" y2="222"/>
	</g>
	<g>
		<line class="st15" x1="244" y1="57" x2="37.8" y2="222"/>
	</g>
	<g>
		<line class="st15" x1="244" y1="48" x2="26.5" y2="222"/>
	</g>
	<g>
		<line class="st15" x1="244" y1="39" x2="15.2" y2="222"/>
	</g>
	<g>
		<g>
			<line class="st15" x1="19" y1="30" x2="4" y2="42"/>
		</g>
		<g>
			<line class="st15" x1="30.2" y1="30" x2="4" y2="51"/>
		</g>
		<g>
			<line class="st15" x1="41.5" y1="30" x2="4" y2="60"/>
		</g>
		<g>
			<line class="st15" x1="52.8" y1="30" x2="4" y2="69"/>
		</g>
		<g>
			<line class="st15" x1="64" y1="30" x2="4" y2="78"/>
		</g>
		<g>
			<line class="st15" x1="75.2" y1="30" x2="4" y2="87"/>
		</g>
		<g>
			<line class="st15" x1="86.5" y1="30" x2="4" y2="96"/>
		</g>
		<g>
			<line class="st15" x1="97.8" y1="30" x2="4" y2="105"/>
		</g>
		<g>
			<line class="st15" x1="109" y1="30" x2="4" y2="114"/>
		</g>
		<g>
			<line class="st15" x1="120.2" y1="30" x2="4" y2="123"/>
		</g>
		<g>
			<line class="st15" x1="131.5" y1="30" x2="4" y2="132"/>
		</g>
		<g>
			<line class="st15" x1="142.8" y1="30" x2="4" y2="141"/>
		</g>
		<g>
			<line class="st15" x1="154" y1="30" x2="4" y2="150"/>
		</g>
		<g>
			<line class="st15" x1="165.2" y1="30" x2="4" y2="159"/>
		</g>
		<g>
			<line class="st15" x1="176.5" y1="30" x2="4" y2="168"/>
		</g>
		<g>
			<line class="st15" x1="187.8" y1="30" x2="4" y2="177"/>
		</g>
		<g>
			<line class="st15" x1="199" y1="30" x2="4" y2="186"/>
		</g>
		<g>
			<line class="st15" x1="210.2" y1="30" x2="4" y2="195"/>
		</g>
		<g>
			<line class="st15" x1="221.5" y1="30" x2="4" y2="204"/>
		</g>
		<g>
			<line class="st15" x1="232.8" y1="30" x2="4" y2="213"/>
		</g>
		<g>
			<line class="st15" x1="4" y1="222" x2="244" y2="30"/>
		</g>
	</g>
	<rect x="12.8" y="37" class="st10" width="222.5" height="178"/>
	<g>
		<g>
			<path d="M53.1,63.1v1h-0.8c-5,0-9,5-9,11.2v67.4c0,6.2,4,11.2,9,11.2h31.2c5,0,9-5,9-11.2V75.4c0-6.2-4-11.2-9-11.2h-0.8v-1
				c0-3.9-2.6-7.1-5.7-7.1H58.8C55.7,56,53.1,59.2,53.1,63.1L53.1,63.1z M53.1,63.1"/>
		</g>
	</g>
	<g>
		<g>
			<path d="M207.8,122h-0.8v-0.7c0-4-3.9-7.3-8.8-7.3h-52.7c-4.8,0-8.8,3.3-8.8,7.3v25.3c0,4,3.9,7.3,8.8,7.3h52.7
				c4.8,0,8.8-3.3,8.8-7.3V146h0.8c3.1,0,5.6-2.1,5.6-4.7v-14.6C213.4,124.1,210.9,122,207.8,122L207.8,122z M207.8,122"/>
		</g>
	</g>
	<g>
		<g>
			<path d="M100.3,100.7v1.2h-0.8c-2.2,0-4,2.7-4,5.9V148c0,3.3,1.8,5.9,4,5.9h9.7c2.2,0,4-2.7,4-5.9v-40.2c0-3.3-1.8-5.9-4-5.9
				h-0.8v-1.2c0-2-1.1-3.6-2.4-3.6h-3.2C101.3,97.1,100.3,98.7,100.3,100.7L100.3,100.7z M109.1,106.6c0.4,0,0.8,0.5,0.8,1.2V148
				c0,0.7-0.4,1.2-0.8,1.2h-9.7c-0.4,0-0.8-0.5-0.8-1.2v-40.2c0-0.7,0.4-1.2,0.8-1.2H109.1z M109.1,106.6"/>
		</g>
	</g>
	<g>
		<g>
			<path d="M120.6,100.7v1.2h-0.8c-2.2,0-4,2.7-4,5.9V148c0,3.3,1.8,5.9,4,5.9h9.7c2.2,0,4-2.7,4-5.9v-40.2c0-3.3-1.8-5.9-4-5.9
				h-0.8v-1.2c0-2-1.1-3.6-2.4-3.6H123C121.7,97.1,120.6,98.7,120.6,100.7L120.6,100.7z M129.5,106.6c0.4,0,0.8,0.5,0.8,1.2V148
				c0,0.7-0.4,1.2-0.8,1.2h-9.7c-0.4,0-0.8-0.5-0.8-1.2v-40.2c0-0.7,0.4-1.2,0.8-1.2H129.5z M129.5,106.6"/>
		</g>
	</g>
	<g>
		<g>
			<path d="M174.4,86.1c-2.9-8.9,1.2-13.3,1.2-13.3s-13.4,6.4-17.3,23.8c-1.7-2.4-3.1-3.7-3-3.3c1.8,4.6-2.3,6.7-2.2,11.6
				c0.1,4.9,8.5,10.5,8.5,10.5l0,0c0.3,0.2,0.7,0.5,1,0.7c-0.3-0.4-0.6-0.8-0.9-1.1c-0.9-1.3-1.6-2.7-1.6-4c0-2.6,1.1-4.4,1.9-6.3
				c0.7-1.6,1.1-3.2,0.3-5.3c-0.1-0.3,0.7,0.4,1.9,1.9c2.3-6.3,4.6-11.8,4.6-11.8s0.1,8.6,3,14.1c2.7,5.2,2.6,7.8,2.6,7.8
				c5-4.8,6.6-12.3,6.6-12.3c1.8,1.6,2.9,3.6,3.4,5.7c1.2,4.3-1.3,8.6-1.4,9c0,0.2-0.1,0.3-0.1,0.5c-0.2,0.8-0.5,1.5-0.9,2.1
				c0.5-0.3,0.9-0.6,1.3-1l0,0c0,0,7.8-5.6,7.8-10.5c0.1-4.9-4-7-2.2-11.6c0.2-0.4-1,0.7-2.5,2.8c-1.4-4.4-2.3-7.9-7-12
				c0,0,0.9,9.5-4.1,16.3C175.6,100.4,177.3,95,174.4,86.1L174.4,86.1z M174.4,86.1"/>
		</g>
	</g>
	<polygon class="st10" points="176.5,108 176.5,119 181.3,117.6 181.3,135.4 185.5,135.4 185.5,144.5 182.8,138.7 179.8,138.7 
		179.5,121 172.9,124.8 175.3,128.6 170.5,138.2 171.1,129.6 169.3,126.2 174.1,119 173.8,108 	"/>
	<rect x="53" y="160.5" class="st16" width="156" height="25.5"/>
	<text transform="matrix(1 0 0 1 83.4307 180)" class="st12 st17">UN3481</text>
</g>
</svg>
