<?xml version="1.0" encoding="utf-8"?>
<!-- Generator: Adobe Illustrator 21.0.0, SVG Export Plug-In . SVG Version: 6.00 Build 0)  -->
<svg version="1.1" xmlns="http://www.w3.org/2000/svg" xmlns:xlink="http://www.w3.org/1999/xlink" x="0px" y="0px"
	 viewBox="0 0 250 250" style="enable-background:new 0 0 250 250;" xml:space="preserve">
<style type="text/css">
	.st0{display:none;}
	.st1{display:inline;}
	.st2{fill:none;stroke:#4D4D4D;stroke-width:0.25;stroke-miterlimit:10;}
	.st3{fill:#FFE17D;}
	.st4{fill:#FFC350;}
	.st5{fill:#FFD164;}
	.st6{fill-rule:evenodd;clip-rule:evenodd;fill:#00B9F2;}
	.st7{fill-rule:evenodd;clip-rule:evenodd;}
</style>
<g id="Capa_1" class="st0">
	<g class="st1">
		<g>
			<g>
				<line class="st2" x1="250" y1="-0.5" x2="250" y2="249.5"/>
			</g>
			<g>
				<line class="st2" x1="245" y1="-0.5" x2="245" y2="249.5"/>
			</g>
			<g>
				<line class="st2" x1="240" y1="-0.5" x2="240" y2="249.5"/>
			</g>
			<g>
				<line class="st2" x1="235" y1="-0.5" x2="235" y2="249.5"/>
			</g>
			<g>
				<line class="st2" x1="230" y1="-0.5" x2="230" y2="249.5"/>
			</g>
			<g>
				<line class="st2" x1="225" y1="-0.5" x2="225" y2="249.5"/>
			</g>
			<g>
				<line class="st2" x1="220" y1="-0.5" x2="220" y2="249.5"/>
			</g>
			<g>
				<line class="st2" x1="215" y1="-0.5" x2="215" y2="249.5"/>
			</g>
			<g>
				<line class="st2" x1="210" y1="-0.5" x2="210" y2="249.5"/>
			</g>
			<g>
				<line class="st2" x1="205" y1="-0.5" x2="205" y2="249.5"/>
			</g>
			<g>
				<line class="st2" x1="200" y1="-0.5" x2="200" y2="249.5"/>
			</g>
			<g>
				<line class="st2" x1="195" y1="-0.5" x2="195" y2="249.5"/>
			</g>
			<g>
				<line class="st2" x1="190" y1="-0.5" x2="190" y2="249.5"/>
			</g>
			<g>
				<line class="st2" x1="185" y1="-0.5" x2="185" y2="249.5"/>
			</g>
			<g>
				<line class="st2" x1="180" y1="-0.5" x2="180" y2="249.5"/>
			</g>
			<g>
				<line class="st2" x1="175" y1="-0.5" x2="175" y2="249.5"/>
			</g>
			<g>
				<line class="st2" x1="170" y1="-0.5" x2="170" y2="249.5"/>
			</g>
			<g>
				<line class="st2" x1="165" y1="-0.5" x2="165" y2="249.5"/>
			</g>
			<g>
				<line class="st2" x1="160" y1="-0.5" x2="160" y2="249.5"/>
			</g>
			<g>
				<line class="st2" x1="155" y1="-0.5" x2="155" y2="249.5"/>
			</g>
			<g>
				<line class="st2" x1="150" y1="-0.5" x2="150" y2="249.5"/>
			</g>
			<g>
				<line class="st2" x1="145" y1="-0.5" x2="145" y2="249.5"/>
			</g>
			<g>
				<line class="st2" x1="140" y1="-0.5" x2="140" y2="249.5"/>
			</g>
			<g>
				<line class="st2" x1="135" y1="-0.5" x2="135" y2="249.5"/>
			</g>
			<g>
				<line class="st2" x1="130" y1="-0.5" x2="130" y2="249.5"/>
			</g>
			<g>
				<line class="st2" x1="125" y1="-0.5" x2="125" y2="249.5"/>
			</g>
			<g>
				<line class="st2" x1="120" y1="-0.5" x2="120" y2="249.5"/>
			</g>
			<g>
				<line class="st2" x1="115" y1="-0.5" x2="115" y2="249.5"/>
			</g>
			<g>
				<line class="st2" x1="110" y1="-0.5" x2="110" y2="249.5"/>
			</g>
			<g>
				<line class="st2" x1="105" y1="-0.5" x2="105" y2="249.5"/>
			</g>
			<g>
				<line class="st2" x1="100" y1="-0.5" x2="100" y2="249.5"/>
			</g>
			<g>
				<line class="st2" x1="95" y1="-0.5" x2="95" y2="249.5"/>
			</g>
			<g>
				<line class="st2" x1="90" y1="-0.5" x2="90" y2="249.5"/>
			</g>
			<g>
				<line class="st2" x1="85" y1="-0.5" x2="85" y2="249.5"/>
			</g>
			<g>
				<line class="st2" x1="80" y1="-0.5" x2="80" y2="249.5"/>
			</g>
			<g>
				<line class="st2" x1="75" y1="-0.5" x2="75" y2="249.5"/>
			</g>
			<g>
				<line class="st2" x1="70" y1="-0.5" x2="70" y2="249.5"/>
			</g>
			<g>
				<line class="st2" x1="65" y1="-0.5" x2="65" y2="249.5"/>
			</g>
			<g>
				<line class="st2" x1="60" y1="-0.5" x2="60" y2="249.5"/>
			</g>
			<g>
				<line class="st2" x1="55" y1="-0.5" x2="55" y2="249.5"/>
			</g>
			<g>
				<line class="st2" x1="50" y1="-0.5" x2="50" y2="249.5"/>
			</g>
			<g>
				<line class="st2" x1="45" y1="-0.5" x2="45" y2="249.5"/>
			</g>
			<g>
				<line class="st2" x1="40" y1="-0.5" x2="40" y2="249.5"/>
			</g>
			<g>
				<line class="st2" x1="35" y1="-0.5" x2="35" y2="249.5"/>
			</g>
			<g>
				<line class="st2" x1="30" y1="-0.5" x2="30" y2="249.5"/>
			</g>
			<g>
				<line class="st2" x1="25" y1="-0.5" x2="25" y2="249.5"/>
			</g>
			<g>
				<line class="st2" x1="20" y1="-0.5" x2="20" y2="249.5"/>
			</g>
			<g>
				<line class="st2" x1="15" y1="-0.5" x2="15" y2="249.5"/>
			</g>
			<g>
				<line class="st2" x1="10" y1="-0.5" x2="10" y2="249.5"/>
			</g>
			<g>
				<line class="st2" x1="5" y1="-0.5" x2="5" y2="249.5"/>
			</g>
			<g>
				<line class="st2" x1="0" y1="-0.5" x2="0" y2="249.5"/>
			</g>
		</g>
		<g>
			<g>
				<line class="st2" x1="0" y1="4.5" x2="250" y2="4.5"/>
			</g>
			<g>
				<line class="st2" x1="0" y1="9.5" x2="250" y2="9.5"/>
			</g>
			<g>
				<line class="st2" x1="0" y1="14.5" x2="250" y2="14.5"/>
			</g>
			<g>
				<line class="st2" x1="0" y1="19.5" x2="250" y2="19.5"/>
			</g>
			<g>
				<line class="st2" x1="0" y1="24.5" x2="250" y2="24.5"/>
			</g>
			<g>
				<line class="st2" x1="0" y1="29.5" x2="250" y2="29.5"/>
			</g>
			<g>
				<line class="st2" x1="0" y1="34.5" x2="250" y2="34.5"/>
			</g>
			<g>
				<line class="st2" x1="0" y1="39.5" x2="250" y2="39.5"/>
			</g>
			<g>
				<line class="st2" x1="0" y1="44.5" x2="250" y2="44.5"/>
			</g>
			<g>
				<line class="st2" x1="0" y1="49.5" x2="250" y2="49.5"/>
			</g>
			<g>
				<line class="st2" x1="0" y1="54.5" x2="250" y2="54.5"/>
			</g>
			<g>
				<line class="st2" x1="0" y1="59.5" x2="250" y2="59.5"/>
			</g>
			<g>
				<line class="st2" x1="0" y1="64.5" x2="250" y2="64.5"/>
			</g>
			<g>
				<line class="st2" x1="0" y1="69.5" x2="250" y2="69.5"/>
			</g>
			<g>
				<line class="st2" x1="0" y1="74.5" x2="250" y2="74.5"/>
			</g>
			<g>
				<line class="st2" x1="0" y1="79.5" x2="250" y2="79.5"/>
			</g>
			<g>
				<line class="st2" x1="0" y1="84.5" x2="250" y2="84.5"/>
			</g>
			<g>
				<line class="st2" x1="0" y1="89.5" x2="250" y2="89.5"/>
			</g>
			<g>
				<line class="st2" x1="0" y1="94.5" x2="250" y2="94.5"/>
			</g>
			<g>
				<line class="st2" x1="0" y1="99.5" x2="250" y2="99.5"/>
			</g>
			<g>
				<line class="st2" x1="0" y1="104.5" x2="250" y2="104.5"/>
			</g>
			<g>
				<line class="st2" x1="0" y1="109.5" x2="250" y2="109.5"/>
			</g>
			<g>
				<line class="st2" x1="0" y1="114.5" x2="250" y2="114.5"/>
			</g>
			<g>
				<line class="st2" x1="0" y1="119.5" x2="250" y2="119.5"/>
			</g>
			<g>
				<line class="st2" x1="0" y1="124.5" x2="250" y2="124.5"/>
			</g>
			<g>
				<line class="st2" x1="0" y1="129.5" x2="250" y2="129.5"/>
			</g>
			<g>
				<line class="st2" x1="0" y1="134.5" x2="250" y2="134.5"/>
			</g>
			<g>
				<line class="st2" x1="0" y1="139.5" x2="250" y2="139.5"/>
			</g>
			<g>
				<line class="st2" x1="0" y1="144.5" x2="250" y2="144.5"/>
			</g>
			<g>
				<line class="st2" x1="0" y1="149.5" x2="250" y2="149.5"/>
			</g>
			<g>
				<line class="st2" x1="0" y1="154.5" x2="250" y2="154.5"/>
			</g>
			<g>
				<line class="st2" x1="0" y1="159.5" x2="250" y2="159.5"/>
			</g>
			<g>
				<line class="st2" x1="0" y1="164.5" x2="250" y2="164.5"/>
			</g>
			<g>
				<line class="st2" x1="0" y1="169.5" x2="250" y2="169.5"/>
			</g>
			<g>
				<line class="st2" x1="0" y1="174.5" x2="250" y2="174.5"/>
			</g>
			<g>
				<line class="st2" x1="0" y1="179.5" x2="250" y2="179.5"/>
			</g>
			<g>
				<line class="st2" x1="0" y1="184.5" x2="250" y2="184.5"/>
			</g>
			<g>
				<line class="st2" x1="0" y1="189.5" x2="250" y2="189.5"/>
			</g>
			<g>
				<line class="st2" x1="0" y1="194.5" x2="250" y2="194.5"/>
			</g>
			<g>
				<line class="st2" x1="0" y1="199.5" x2="250" y2="199.5"/>
			</g>
			<g>
				<line class="st2" x1="0" y1="204.5" x2="250" y2="204.5"/>
			</g>
			<g>
				<line class="st2" x1="0" y1="209.5" x2="250" y2="209.5"/>
			</g>
			<g>
				<line class="st2" x1="0" y1="214.5" x2="250" y2="214.5"/>
			</g>
			<g>
				<line class="st2" x1="0" y1="219.5" x2="250" y2="219.5"/>
			</g>
			<g>
				<line class="st2" x1="0" y1="224.5" x2="250" y2="224.5"/>
			</g>
			<g>
				<line class="st2" x1="0" y1="229.5" x2="250" y2="229.5"/>
			</g>
			<g>
				<line class="st2" x1="0" y1="234.5" x2="250" y2="234.5"/>
			</g>
			<g>
				<line class="st2" x1="0" y1="239.5" x2="250" y2="239.5"/>
			</g>
			<g>
				<line class="st2" x1="0" y1="244.5" x2="250" y2="244.5"/>
			</g>
			<g>
				<line class="st2" x1="0" y1="249.5" x2="250" y2="249.5"/>
			</g>
		</g>
	</g>
</g>
<g id="Capa_2">
	<path class="st3" d="M127.3,24.6l-86,41.5c-1.1,0.5-1.8,1.6-1.8,2.8v102.1c0,1.2,0.7,2.3,1.8,2.8l86,41.5c1.7,0.8,3.7,0.8,5.4,0
		l86-41.5c1.1-0.5,1.8-1.6,1.8-2.8V68.9c0-1.2-0.7-2.3-1.8-2.8l-86-41.5C131,23.8,129,23.8,127.3,24.6z"/>
	<path class="st4" d="M40.1,67.2c-0.3,0.5-0.5,1.1-0.5,1.7v102.1c0,1.2,0.7,2.3,1.8,2.8l86,41.5c0.9,0.4,1.8,0.6,2.7,0.6V110.6
		L40.1,67.2z"/>
	<path class="st5" d="M219.9,67.2c0.3,0.5,0.5,1.1,0.5,1.7v102.1c0,1.2-0.7,2.3-1.8,2.8l-86,41.5c-0.9,0.4-1.8,0.6-2.7,0.6V110.6
		L219.9,67.2z"/>
	<polygon points="189.5,81.9 99.2,38.3 75.4,49.8 165.9,93.5 	"/>
	<path d="M165.9,93.5v33.8c0,1.1,1.2,1.9,2.2,1.4l19.6-9.5c1.1-0.5,1.8-1.6,1.8-2.8V81.9L165.9,93.5z"/>
	<g>
		<path class="st6" d="M89.6,51.8c0.1-0.5,0.3-0.9,0.7-1.2c0.2-0.1,0.5-0.2,0.8-0.1c0.4,0.1,0.7,0.3,0.9,0.5
			c0.3,0.3,0.5,0.6,0.6,0.9c0.1,0.3,0.2,0.6,0.1,0.9c-0.1,0.2-0.2,0.5-0.4,0.6c-0.2,0.2-0.6,0.4-0.9,0.4c0.3,0.4,0.6,0.7,0.9,1.1
			c0,0,0,0.1,0,0.1c0,0,0,0.1-0.1,0.1c-0.2,0.1-0.3,0.3-0.5,0.4c0,0-0.1,0.1-0.1,0c0,0-0.1,0-0.1-0.1l-2.9-3.3c-0.1-0.1,0-0.1,0-0.2
			c0.1-0.1,0.2-0.2,0.3-0.3c0,0,0.1-0.1,0.1-0.1c0,0,0.1,0,0.1,0C89.4,51.7,89.5,51.8,89.6,51.8L89.6,51.8z M89.9,52.1
			c0.4,0.4,0.7,0.9,1.1,1.3c0.3,0,0.5-0.2,0.7-0.4c0.1-0.1,0.2-0.3,0.1-0.5c-0.1-0.3-0.2-0.5-0.4-0.7c-0.1-0.1-0.2-0.2-0.4-0.3
			c-0.1-0.1-0.2-0.1-0.3-0.1c-0.1,0-0.3,0-0.4,0.1C90.2,51.6,90,51.9,89.9,52.1L89.9,52.1z"/>
		<path class="st6" d="M96,45.9c0.1-0.2,0.2-0.4,0.4-0.5c0.1-0.1,0.3-0.2,0.5-0.3c0.1,0,0.3,0,0.5,0c0.1-0.2,0.2-0.5,0.3-0.7
			c0.1-0.2,0.2-0.3,0.4-0.5c0.1-0.1,0.3-0.2,0.5-0.2c0.2,0,0.3,0,0.5,0.1c0.1,0.1,0.2,0.1,0.3,0.3c0.5,0.6,1,1.2,1.6,1.8
			c0,0,0.1,0.1,0,0.1c0,0,0,0.1-0.1,0.1c-0.2,0.1-0.3,0.3-0.5,0.4c0,0-0.1,0.1-0.1,0c0,0-0.1,0-0.1-0.1c-0.5-0.5-0.9-1.1-1.4-1.6
			c-0.1-0.1-0.2-0.1-0.3-0.2c-0.1,0-0.2,0-0.3,0.1c-0.2,0.2-0.3,0.4-0.4,0.6c0.5,0.6,1,1.2,1.6,1.8c0,0,0.1,0.1,0,0.1
			c0,0,0,0.1-0.1,0.1c-0.2,0.1-0.3,0.3-0.5,0.4c0,0-0.1,0.1-0.1,0.1c0,0-0.1,0-0.1-0.1c-0.5-0.5-0.9-1.1-1.4-1.6
			c-0.1-0.1-0.2-0.2-0.3-0.2c-0.1,0-0.2,0-0.3,0.1c-0.2,0.2-0.4,0.4-0.5,0.6c0.5,0.6,1,1.2,1.6,1.8c0,0,0.1,0.1,0,0.1
			c0,0,0,0.1-0.1,0.1c-0.2,0.1-0.3,0.3-0.5,0.4c0,0-0.1,0.1-0.1,0c0,0-0.1,0-0.1-0.1c-0.7-0.8-1.3-1.5-2-2.3c0,0-0.1-0.1-0.1-0.1
			c0-0.1,0-0.1,0.1-0.1c0.1-0.1,0.2-0.2,0.4-0.3c0.1,0,0.1-0.1,0.2,0c0.1,0,0.1,0.1,0.2,0.1C95.8,46.3,95.9,46.1,96,45.9L96,45.9z"
			/>
		<path class="st6" d="M99.9,42.5c0.1-0.2,0.3-0.4,0.5-0.6c0.2-0.1,0.3-0.3,0.6-0.3c0.2-0.1,0.4-0.1,0.6,0c0.2,0,0.3,0.1,0.4,0.3
			c0.1,0.1,0.3,0.3,0.3,0.5c0,0.2,0,0.4-0.1,0.6c-0.1,0.2-0.3,0.4-0.5,0.6c-0.2,0.2-0.4,0.3-0.6,0.5c0.1,0.1,0.3,0.3,0.5,0.3
			c0.2,0,0.4,0,0.5-0.1c0.2-0.1,0.3-0.3,0.5-0.4c0.1-0.1,0.2-0.2,0.3-0.4c0,0,0.1-0.1,0.1-0.1c0.1,0,0.1,0,0.1,0.1
			c0.1,0.1,0.1,0.2,0.2,0.2c0,0,0.1,0.1,0.1,0.2c0,0.1-0.1,0.2-0.1,0.2c-0.1,0.2-0.3,0.4-0.5,0.6c-0.2,0.2-0.3,0.3-0.5,0.4
			c-0.2,0.1-0.4,0.2-0.6,0.2c-0.2,0-0.4,0-0.6-0.1c-0.2-0.1-0.4-0.2-0.5-0.3c-0.2-0.2-0.4-0.4-0.5-0.6c-0.2-0.3-0.3-0.7-0.3-1
			C99.7,42.9,99.8,42.7,99.9,42.5L99.9,42.5z M100.5,43c0,0.2,0.1,0.4,0.2,0.6c0.2-0.1,0.4-0.2,0.5-0.4c0.1-0.1,0.2-0.2,0.2-0.3
			c0-0.1,0.1-0.2,0-0.3c0-0.1-0.1-0.2-0.2-0.2c-0.1-0.1-0.2-0.1-0.3-0.1c-0.1,0-0.2,0.1-0.3,0.2C100.6,42.6,100.5,42.8,100.5,43
			L100.5,43z"/>
		<path class="st6" d="M92.8,48.7c0.1-0.1,0.2-0.2,0.3-0.3c0,0,0.1-0.1,0.2-0.1c0.1,0,0.1,0,0.1,0.1c0.1,0.1,0.2,0.3,0.3,0.4
			c0,0,0.1,0.1,0.1,0.2c0,0.1-0.1,0.1-0.2,0.2c-0.2,0.1-0.3,0.3-0.5,0.5c0,0.1-0.1,0.1-0.1,0.2c0.5,0.6,1,1.1,1.4,1.7
			c0,0,0.1,0.1,0.1,0.1c0,0,0,0.1-0.1,0.1c-0.2,0.1-0.3,0.3-0.5,0.4c0,0-0.1,0.1-0.1,0.1c0,0-0.1,0-0.1-0.1c-0.7-0.8-1.3-1.5-2-2.3
			c0,0-0.1-0.1,0-0.1c0,0,0-0.1,0.1-0.1c0.1-0.1,0.2-0.2,0.4-0.3c0,0,0.1-0.1,0.1-0.1c0,0,0.1,0,0.1,0c0.1,0.1,0.2,0.1,0.3,0.2
			C92.6,49.1,92.7,48.9,92.8,48.7L92.8,48.7z"/>
		<path class="st6" d="M93.7,47.8C93.7,47.8,93.7,47.8,93.7,47.8c0.2-0.2,0.4-0.3,0.5-0.5c0,0,0.1-0.1,0.1-0.1
			c0.1,0,0.1,0.1,0.1,0.1c0.6,0.7,1.3,1.5,1.9,2.2c0,0,0.1,0.1,0.1,0.1c0,0.1,0,0.1-0.1,0.1c-0.2,0.1-0.3,0.3-0.5,0.4
			c0,0-0.1,0.1-0.1,0.1c0,0-0.1,0-0.1-0.1c-0.7-0.8-1.3-1.5-2-2.3C93.7,48,93.6,48,93.7,47.8C93.6,47.9,93.6,47.9,93.7,47.8
			L93.7,47.8z"/>
		<path class="st6" d="M102.9,46.1c0.2-0.2,0.5-0.4,0.8-0.6c0.1,0,0.2-0.1,0.3-0.1c0,0,0.1,0,0.1,0c0.1,0,0.1,0.1,0.1,0.1
			c0.1,0.1,0.2,0.3,0.3,0.4c0.2,0.3,0.3,0.6,0.4,0.9c0.1,0.4,0.2,0.8,0.1,1.1c0,0.1,0,0.1-0.1,0.2c0,0-0.1,0.1-0.1,0
			c0,0-0.1-0.1-0.1-0.1c-0.1-0.3-0.2-0.6-0.3-0.9c-0.1-0.2-0.2-0.4-0.3-0.6c-0.1-0.1-0.1-0.2-0.2-0.2c-0.1,0-0.2,0-0.2,0
			c-0.1,0.1-0.3,0.1-0.4,0.2c-0.4,0.3-0.7,0.7-1,1c0,0-0.1,0-0.1,0c0,0-0.1,0-0.1-0.1c0-0.1,0-0.1,0-0.2c0.1-0.3,0.3-0.6,0.5-0.9
			C102.7,46.3,102.8,46.2,102.9,46.1L102.9,46.1z"/>
		<path class="st6" d="M92.4,55.6c0,0,0-0.1,0.1-0.1c0,0,0.1,0,0.2,0c0.4-0.1,0.7-0.1,1-0.2c1.7-0.5,3.2-1.2,4.7-2.1
			c0.8-0.5,1.5-1.1,2.2-1.8c0.6-0.6,1.2-1.3,1.8-2.1c0.4-0.6,0.8-1.3,1.2-2c0.1-0.1,0.2-0.2,0.3-0.2c0.1,0,0.1,0.1,0.1,0.2
			c0,0.1,0,0.1,0,0.2c-0.1,0.5-0.3,0.9-0.5,1.4c-0.3,0.7-0.7,1.3-1.1,1.9c-0.5,0.8-1.1,1.5-1.8,2.1l-0.3,0.3
			c-0.1,0.1-0.2,0.2-0.3,0.2c-0.7,0.5-1.4,1-2.2,1.4c-0.7,0.3-1.5,0.6-2.3,0.8c-0.9,0.2-1.8,0.3-2.8,0.3c0,0-0.1,0-0.1,0
			C92.5,55.7,92.4,55.7,92.4,55.6L92.4,55.6z"/>
	</g>
	<g>
		<path class="st6" d="M104.6,59.8c0.1-0.5,0.3-0.9,0.7-1.2c0.2-0.1,0.5-0.2,0.8-0.1c0.4,0.1,0.7,0.3,0.9,0.5
			c0.3,0.3,0.5,0.6,0.6,0.9c0.1,0.3,0.2,0.6,0.1,0.9c-0.1,0.2-0.2,0.5-0.4,0.6c-0.2,0.2-0.6,0.4-0.9,0.4c0.3,0.4,0.6,0.7,0.9,1.1
			c0,0,0,0.1,0,0.1c0,0,0,0.1-0.1,0.1c-0.2,0.1-0.3,0.3-0.5,0.4c0,0-0.1,0.1-0.1,0c0,0-0.1,0-0.1-0.1l-2.9-3.3c-0.1-0.1,0-0.1,0-0.2
			c0.1-0.1,0.2-0.2,0.3-0.3c0,0,0.1-0.1,0.1-0.1c0,0,0.1,0,0.1,0C104.4,59.7,104.5,59.8,104.6,59.8L104.6,59.8z M104.9,60.1
			c0.4,0.4,0.7,0.9,1.1,1.3c0.3,0,0.5-0.2,0.7-0.4c0.1-0.1,0.2-0.3,0.1-0.5c-0.1-0.3-0.2-0.5-0.4-0.7c-0.1-0.1-0.2-0.2-0.4-0.3
			c-0.1-0.1-0.2-0.1-0.3-0.1c-0.1,0-0.3,0-0.4,0.1C105.2,59.6,105,59.9,104.9,60.1L104.9,60.1z"/>
		<path class="st6" d="M111,53.9c0.1-0.2,0.2-0.4,0.4-0.5c0.1-0.1,0.3-0.2,0.5-0.3c0.1,0,0.3,0,0.5,0c0.1-0.2,0.2-0.5,0.3-0.7
			c0.1-0.2,0.2-0.3,0.4-0.5c0.1-0.1,0.3-0.2,0.5-0.2c0.2,0,0.3,0,0.5,0.1c0.1,0.1,0.2,0.1,0.3,0.3c0.5,0.6,1,1.2,1.6,1.8
			c0,0,0.1,0.1,0,0.1c0,0,0,0.1-0.1,0.1c-0.2,0.1-0.3,0.3-0.5,0.4c0,0-0.1,0.1-0.1,0c0,0-0.1,0-0.1-0.1c-0.5-0.5-0.9-1.1-1.4-1.6
			c-0.1-0.1-0.2-0.1-0.3-0.2c-0.1,0-0.2,0-0.3,0.1c-0.2,0.2-0.3,0.4-0.4,0.6c0.5,0.6,1,1.2,1.6,1.8c0,0,0.1,0.1,0,0.1
			c0,0,0,0.1-0.1,0.1c-0.2,0.1-0.3,0.3-0.5,0.4c0,0-0.1,0.1-0.1,0.1c0,0-0.1,0-0.1-0.1c-0.5-0.5-0.9-1.1-1.4-1.6
			c-0.1-0.1-0.2-0.2-0.3-0.2c-0.1,0-0.2,0-0.3,0.1c-0.2,0.2-0.4,0.4-0.5,0.6c0.5,0.6,1,1.2,1.6,1.8c0,0,0.1,0.1,0,0.1
			c0,0,0,0.1-0.1,0.1c-0.2,0.1-0.3,0.3-0.5,0.4c0,0-0.1,0.1-0.1,0c0,0-0.1,0-0.1-0.1c-0.7-0.8-1.3-1.5-2-2.3c0,0-0.1-0.1-0.1-0.1
			c0-0.1,0-0.1,0.1-0.1c0.1-0.1,0.2-0.2,0.4-0.3c0.1,0,0.1-0.1,0.2,0c0.1,0,0.1,0.1,0.2,0.1C110.8,54.3,110.9,54.1,111,53.9
			L111,53.9z"/>
		<path class="st6" d="M114.9,50.5c0.1-0.2,0.3-0.4,0.5-0.6c0.2-0.1,0.3-0.3,0.6-0.3c0.2-0.1,0.4-0.1,0.6,0c0.2,0,0.3,0.1,0.4,0.3
			c0.1,0.1,0.3,0.3,0.3,0.5c0,0.2,0,0.4-0.1,0.6c-0.1,0.2-0.3,0.4-0.5,0.6c-0.2,0.2-0.4,0.3-0.6,0.5c0.1,0.1,0.3,0.3,0.5,0.3
			c0.2,0,0.4,0,0.5-0.1c0.2-0.1,0.3-0.3,0.5-0.4c0.1-0.1,0.2-0.2,0.3-0.4c0,0,0.1-0.1,0.1-0.1c0.1,0,0.1,0,0.1,0.1
			c0.1,0.1,0.1,0.2,0.2,0.2c0,0,0.1,0.1,0.1,0.2c0,0.1-0.1,0.2-0.1,0.2c-0.1,0.2-0.3,0.4-0.5,0.6c-0.2,0.2-0.3,0.3-0.5,0.4
			c-0.2,0.1-0.4,0.2-0.6,0.2c-0.2,0-0.4,0-0.6-0.1c-0.2-0.1-0.4-0.2-0.5-0.3c-0.2-0.2-0.4-0.4-0.5-0.6c-0.2-0.3-0.3-0.7-0.3-1
			C114.7,50.9,114.8,50.7,114.9,50.5L114.9,50.5z M115.5,51c0,0.2,0.1,0.4,0.2,0.6c0.2-0.1,0.4-0.2,0.5-0.4c0.1-0.1,0.2-0.2,0.2-0.3
			c0-0.1,0.1-0.2,0-0.3c0-0.1-0.1-0.2-0.2-0.2c-0.1-0.1-0.2-0.1-0.3-0.1c-0.1,0-0.2,0.1-0.3,0.2C115.6,50.6,115.5,50.8,115.5,51
			L115.5,51z"/>
		<path class="st6" d="M107.8,56.7c0.1-0.1,0.2-0.2,0.3-0.3c0,0,0.1-0.1,0.2-0.1c0.1,0,0.1,0,0.1,0.1c0.1,0.1,0.2,0.3,0.3,0.4
			c0,0,0.1,0.1,0.1,0.2c0,0.1-0.1,0.1-0.2,0.2c-0.2,0.1-0.3,0.3-0.5,0.5c0,0.1-0.1,0.1-0.1,0.2c0.5,0.6,1,1.1,1.4,1.7
			c0,0,0.1,0.1,0.1,0.1c0,0,0,0.1-0.1,0.1c-0.2,0.1-0.3,0.3-0.5,0.4c0,0-0.1,0.1-0.1,0.1c0,0-0.1,0-0.1-0.1c-0.7-0.8-1.3-1.5-2-2.3
			c0,0-0.1-0.1,0-0.1c0,0,0-0.1,0.1-0.1c0.1-0.1,0.2-0.2,0.4-0.3c0,0,0.1-0.1,0.1-0.1c0,0,0.1,0,0.1,0c0.1,0.1,0.2,0.1,0.3,0.2
			C107.6,57.1,107.7,56.9,107.8,56.7L107.8,56.7z"/>
		<path class="st6" d="M108.7,55.8C108.7,55.8,108.7,55.8,108.7,55.8c0.2-0.2,0.4-0.3,0.5-0.5c0,0,0.1-0.1,0.1-0.1
			c0.1,0,0.1,0.1,0.1,0.1c0.6,0.7,1.3,1.5,1.9,2.2c0,0,0.1,0.1,0.1,0.1c0,0.1,0,0.1-0.1,0.1c-0.2,0.1-0.3,0.3-0.5,0.4
			c0,0-0.1,0.1-0.1,0.1c0,0-0.1,0-0.1-0.1c-0.7-0.8-1.3-1.5-2-2.3C108.7,56,108.6,56,108.7,55.8C108.6,55.9,108.6,55.9,108.7,55.8
			L108.7,55.8z"/>
		<path class="st6" d="M117.9,54.1c0.2-0.2,0.5-0.4,0.8-0.6c0.1,0,0.2-0.1,0.3-0.1c0,0,0.1,0,0.1,0c0.1,0,0.1,0.1,0.1,0.1
			c0.1,0.1,0.2,0.3,0.3,0.4c0.2,0.3,0.3,0.6,0.4,0.9c0.1,0.4,0.2,0.8,0.1,1.1c0,0.1,0,0.1-0.1,0.2c0,0-0.1,0.1-0.1,0
			c0,0-0.1-0.1-0.1-0.1c-0.1-0.3-0.2-0.6-0.3-0.9c-0.1-0.2-0.2-0.4-0.3-0.6c-0.1-0.1-0.1-0.2-0.2-0.2c-0.1,0-0.2,0-0.2,0
			c-0.1,0.1-0.3,0.1-0.4,0.2c-0.4,0.3-0.7,0.7-1,1c0,0-0.1,0-0.1,0c0,0-0.1,0-0.1-0.1c0-0.1,0-0.1,0-0.2c0.1-0.3,0.3-0.6,0.5-0.9
			C117.7,54.3,117.8,54.2,117.9,54.1L117.9,54.1z"/>
		<path class="st6" d="M107.4,63.6c0,0,0-0.1,0.1-0.1c0,0,0.1,0,0.2,0c0.4-0.1,0.7-0.1,1-0.2c1.7-0.5,3.2-1.2,4.7-2.1
			c0.8-0.5,1.5-1.1,2.2-1.8c0.6-0.6,1.2-1.3,1.8-2.1c0.4-0.6,0.8-1.3,1.2-2c0.1-0.1,0.2-0.2,0.3-0.2c0.1,0,0.1,0.1,0.1,0.2
			c0,0.1,0,0.1,0,0.2c-0.1,0.5-0.3,0.9-0.5,1.4c-0.3,0.7-0.7,1.3-1.1,1.9c-0.5,0.8-1.1,1.5-1.8,2.1l-0.3,0.3
			c-0.1,0.1-0.2,0.2-0.3,0.2c-0.7,0.5-1.4,1-2.2,1.4c-0.7,0.3-1.5,0.6-2.3,0.8c-0.9,0.2-1.8,0.3-2.8,0.3c0,0-0.1,0-0.1,0
			C107.5,63.7,107.4,63.7,107.4,63.6L107.4,63.6z"/>
	</g>
	<g>
		<path class="st6" d="M120.6,67.8c0.1-0.5,0.3-0.9,0.7-1.2c0.2-0.1,0.5-0.2,0.8-0.1c0.4,0.1,0.7,0.3,0.9,0.5
			c0.3,0.3,0.5,0.6,0.6,0.9c0.1,0.3,0.2,0.6,0.1,0.9c-0.1,0.2-0.2,0.5-0.4,0.6c-0.2,0.2-0.6,0.4-0.9,0.4c0.3,0.4,0.6,0.7,0.9,1.1
			c0,0,0,0.1,0,0.1c0,0,0,0.1-0.1,0.1c-0.2,0.1-0.3,0.3-0.5,0.4c0,0-0.1,0.1-0.1,0c0,0-0.1,0-0.1-0.1l-2.9-3.3c-0.1-0.1,0-0.1,0-0.2
			c0.1-0.1,0.2-0.2,0.3-0.3c0,0,0.1-0.1,0.1-0.1c0,0,0.1,0,0.1,0C120.4,67.7,120.5,67.8,120.6,67.8L120.6,67.8z M120.9,68.1
			c0.4,0.4,0.7,0.9,1.1,1.3c0.3,0,0.5-0.2,0.7-0.4c0.1-0.1,0.2-0.3,0.1-0.5c-0.1-0.3-0.2-0.5-0.4-0.7c-0.1-0.1-0.2-0.2-0.4-0.3
			c-0.1-0.1-0.2-0.1-0.3-0.1c-0.1,0-0.3,0-0.4,0.1C121.2,67.6,121,67.9,120.9,68.1L120.9,68.1z"/>
		<path class="st6" d="M127,61.9c0.1-0.2,0.2-0.4,0.4-0.5c0.1-0.1,0.3-0.2,0.5-0.3c0.1,0,0.3,0,0.5,0c0.1-0.2,0.2-0.5,0.3-0.7
			c0.1-0.2,0.2-0.3,0.4-0.5c0.1-0.1,0.3-0.2,0.5-0.2c0.2,0,0.3,0,0.5,0.1c0.1,0.1,0.2,0.1,0.3,0.3c0.5,0.6,1,1.2,1.6,1.8
			c0,0,0.1,0.1,0,0.1c0,0,0,0.1-0.1,0.1c-0.2,0.1-0.3,0.3-0.5,0.4c0,0-0.1,0.1-0.1,0c0,0-0.1,0-0.1-0.1c-0.5-0.5-0.9-1.1-1.4-1.6
			c-0.1-0.1-0.2-0.1-0.3-0.2c-0.1,0-0.2,0-0.3,0.1c-0.2,0.2-0.3,0.4-0.4,0.6c0.5,0.6,1,1.2,1.6,1.8c0,0,0.1,0.1,0,0.1
			c0,0,0,0.1-0.1,0.1c-0.2,0.1-0.3,0.3-0.5,0.4c0,0-0.1,0.1-0.1,0.1c0,0-0.1,0-0.1-0.1c-0.5-0.5-0.9-1.1-1.4-1.6
			c-0.1-0.1-0.2-0.2-0.3-0.2c-0.1,0-0.2,0-0.3,0.1c-0.2,0.2-0.4,0.4-0.5,0.6c0.5,0.6,1,1.2,1.6,1.8c0,0,0.1,0.1,0,0.1
			c0,0,0,0.1-0.1,0.1c-0.2,0.1-0.3,0.3-0.5,0.4c0,0-0.1,0.1-0.1,0c0,0-0.1,0-0.1-0.1c-0.7-0.8-1.3-1.5-2-2.3c0,0-0.1-0.1-0.1-0.1
			c0-0.1,0-0.1,0.1-0.1c0.1-0.1,0.2-0.2,0.4-0.3c0.1,0,0.1-0.1,0.2,0c0.1,0,0.1,0.1,0.2,0.1C126.8,62.3,126.9,62.1,127,61.9
			L127,61.9z"/>
		<path class="st6" d="M130.9,58.5c0.1-0.2,0.3-0.4,0.5-0.6c0.2-0.1,0.3-0.3,0.6-0.3c0.2-0.1,0.4-0.1,0.6,0c0.2,0,0.3,0.1,0.4,0.3
			c0.1,0.1,0.3,0.3,0.3,0.5c0,0.2,0,0.4-0.1,0.6c-0.1,0.2-0.3,0.4-0.5,0.6c-0.2,0.2-0.4,0.3-0.6,0.5c0.1,0.1,0.3,0.3,0.5,0.3
			c0.2,0,0.4,0,0.5-0.1c0.2-0.1,0.3-0.3,0.5-0.4c0.1-0.1,0.2-0.2,0.3-0.4c0,0,0.1-0.1,0.1-0.1c0.1,0,0.1,0,0.1,0.1
			c0.1,0.1,0.1,0.2,0.2,0.2c0,0,0.1,0.1,0.1,0.2c0,0.1-0.1,0.2-0.1,0.2c-0.1,0.2-0.3,0.4-0.5,0.6c-0.2,0.2-0.3,0.3-0.5,0.4
			c-0.2,0.1-0.4,0.2-0.6,0.2c-0.2,0-0.4,0-0.6-0.1c-0.2-0.1-0.4-0.2-0.5-0.3c-0.2-0.2-0.4-0.4-0.5-0.6c-0.2-0.3-0.3-0.7-0.3-1
			C130.7,58.9,130.8,58.7,130.9,58.5L130.9,58.5z M131.5,59c0,0.2,0.1,0.4,0.2,0.6c0.2-0.1,0.4-0.2,0.5-0.4c0.1-0.1,0.2-0.2,0.2-0.3
			c0-0.1,0.1-0.2,0-0.3c0-0.1-0.1-0.2-0.2-0.2c-0.1-0.1-0.2-0.1-0.3-0.1c-0.1,0-0.2,0.1-0.3,0.2C131.6,58.6,131.5,58.8,131.5,59
			L131.5,59z"/>
		<path class="st6" d="M123.8,64.7c0.1-0.1,0.2-0.2,0.3-0.3c0,0,0.1-0.1,0.2-0.1c0.1,0,0.1,0,0.1,0.1c0.1,0.1,0.2,0.3,0.3,0.4
			c0,0,0.1,0.1,0.1,0.2c0,0.1-0.1,0.1-0.2,0.2c-0.2,0.1-0.3,0.3-0.5,0.5c0,0.1-0.1,0.1-0.1,0.2c0.5,0.6,1,1.1,1.4,1.7
			c0,0,0.1,0.1,0.1,0.1c0,0,0,0.1-0.1,0.1c-0.2,0.1-0.3,0.3-0.5,0.4c0,0-0.1,0.1-0.1,0.1c0,0-0.1,0-0.1-0.1c-0.7-0.8-1.3-1.5-2-2.3
			c0,0-0.1-0.1,0-0.1c0,0,0-0.1,0.1-0.1c0.1-0.1,0.2-0.2,0.4-0.3c0,0,0.1-0.1,0.1-0.1c0,0,0.1,0,0.1,0c0.1,0.1,0.2,0.1,0.3,0.2
			C123.6,65.1,123.7,64.9,123.8,64.7L123.8,64.7z"/>
		<path class="st6" d="M124.7,63.8C124.7,63.8,124.7,63.8,124.7,63.8c0.2-0.2,0.4-0.3,0.5-0.5c0,0,0.1-0.1,0.1-0.1
			c0.1,0,0.1,0.1,0.1,0.1c0.6,0.7,1.3,1.5,1.9,2.2c0,0,0.1,0.1,0.1,0.1c0,0.1,0,0.1-0.1,0.1c-0.2,0.1-0.3,0.3-0.5,0.4
			c0,0-0.1,0.1-0.1,0.1c0,0-0.1,0-0.1-0.1c-0.7-0.8-1.3-1.5-2-2.3C124.7,64,124.6,64,124.7,63.8C124.6,63.9,124.6,63.9,124.7,63.8
			L124.7,63.8z"/>
		<path class="st6" d="M133.9,62.1c0.2-0.2,0.5-0.4,0.8-0.6c0.1,0,0.2-0.1,0.3-0.1c0,0,0.1,0,0.1,0c0.1,0,0.1,0.1,0.1,0.1
			c0.1,0.1,0.2,0.3,0.3,0.4c0.2,0.3,0.3,0.6,0.4,0.9c0.1,0.4,0.2,0.8,0.1,1.1c0,0.1,0,0.1-0.1,0.2c0,0-0.1,0.1-0.1,0
			c0,0-0.1-0.1-0.1-0.1c-0.1-0.3-0.2-0.6-0.3-0.9c-0.1-0.2-0.2-0.4-0.3-0.6c-0.1-0.1-0.1-0.2-0.2-0.2c-0.1,0-0.2,0-0.2,0
			c-0.1,0.1-0.3,0.1-0.4,0.2c-0.4,0.3-0.7,0.7-1,1c0,0-0.1,0-0.1,0c0,0-0.1,0-0.1-0.1c0-0.1,0-0.1,0-0.2c0.1-0.3,0.3-0.6,0.5-0.9
			C133.7,62.3,133.8,62.2,133.9,62.1L133.9,62.1z"/>
		<path class="st6" d="M123.4,71.6c0,0,0-0.1,0.1-0.1c0,0,0.1,0,0.2,0c0.4-0.1,0.7-0.1,1-0.2c1.7-0.5,3.2-1.2,4.7-2.1
			c0.8-0.5,1.5-1.1,2.2-1.8c0.6-0.6,1.2-1.3,1.8-2.1c0.4-0.6,0.8-1.3,1.2-2c0.1-0.1,0.2-0.2,0.3-0.2c0.1,0,0.1,0.1,0.1,0.2
			c0,0.1,0,0.1,0,0.2c-0.1,0.5-0.3,0.9-0.5,1.4c-0.3,0.7-0.7,1.3-1.1,1.9c-0.5,0.8-1.1,1.5-1.8,2.1l-0.3,0.3
			c-0.1,0.1-0.2,0.2-0.3,0.2c-0.7,0.5-1.4,1-2.2,1.4c-0.7,0.3-1.5,0.6-2.3,0.8c-0.9,0.2-1.8,0.3-2.8,0.3c0,0-0.1,0-0.1,0
			C123.5,71.7,123.4,71.7,123.4,71.6L123.4,71.6z"/>
	</g>
	<g>
		<path class="st6" d="M138.6,74.8c0.1-0.5,0.3-0.9,0.7-1.2c0.2-0.1,0.5-0.2,0.8-0.1c0.4,0.1,0.7,0.3,0.9,0.5
			c0.3,0.3,0.5,0.6,0.6,0.9c0.1,0.3,0.2,0.6,0.1,0.9c-0.1,0.2-0.2,0.5-0.4,0.6c-0.2,0.2-0.6,0.4-0.9,0.4c0.3,0.4,0.6,0.7,0.9,1.1
			c0,0,0,0.1,0,0.1c0,0,0,0.1-0.1,0.1c-0.2,0.1-0.3,0.3-0.5,0.4c0,0-0.1,0.1-0.1,0c0,0-0.1,0-0.1-0.1l-2.9-3.3c-0.1-0.1,0-0.1,0-0.2
			c0.1-0.1,0.2-0.2,0.3-0.3c0,0,0.1-0.1,0.1-0.1c0,0,0.1,0,0.1,0C138.4,74.7,138.5,74.8,138.6,74.8L138.6,74.8z M138.9,75.1
			c0.4,0.4,0.7,0.9,1.1,1.3c0.3,0,0.5-0.2,0.7-0.4c0.1-0.1,0.2-0.3,0.1-0.5c-0.1-0.3-0.2-0.5-0.4-0.7c-0.1-0.1-0.2-0.2-0.4-0.3
			c-0.1-0.1-0.2-0.1-0.3-0.1c-0.1,0-0.3,0-0.4,0.1C139.2,74.6,139,74.9,138.9,75.1L138.9,75.1z"/>
		<path class="st6" d="M145,68.9c0.1-0.2,0.2-0.4,0.4-0.5c0.1-0.1,0.3-0.2,0.5-0.3c0.1,0,0.3,0,0.5,0c0.1-0.2,0.2-0.5,0.3-0.7
			c0.1-0.2,0.2-0.3,0.4-0.5c0.1-0.1,0.3-0.2,0.5-0.2c0.2,0,0.3,0,0.5,0.1c0.1,0.1,0.2,0.1,0.3,0.3c0.5,0.6,1,1.2,1.6,1.8
			c0,0,0.1,0.1,0,0.1c0,0,0,0.1-0.1,0.1c-0.2,0.1-0.3,0.3-0.5,0.4c0,0-0.1,0.1-0.1,0c0,0-0.1,0-0.1-0.1c-0.5-0.5-0.9-1.1-1.4-1.6
			c-0.1-0.1-0.2-0.1-0.3-0.2c-0.1,0-0.2,0-0.3,0.1c-0.2,0.2-0.3,0.4-0.4,0.6c0.5,0.6,1,1.2,1.6,1.8c0,0,0.1,0.1,0,0.1
			c0,0,0,0.1-0.1,0.1c-0.2,0.1-0.3,0.3-0.5,0.4c0,0-0.1,0.1-0.1,0.1c0,0-0.1,0-0.1-0.1c-0.5-0.5-0.9-1.1-1.4-1.6
			c-0.1-0.1-0.2-0.2-0.3-0.2c-0.1,0-0.2,0-0.3,0.1c-0.2,0.2-0.4,0.4-0.5,0.6c0.5,0.6,1,1.2,1.6,1.8c0,0,0.1,0.1,0,0.1
			c0,0,0,0.1-0.1,0.1c-0.2,0.1-0.3,0.3-0.5,0.4c0,0-0.1,0.1-0.1,0c0,0-0.1,0-0.1-0.1c-0.7-0.8-1.3-1.5-2-2.3c0,0-0.1-0.1-0.1-0.1
			c0-0.1,0-0.1,0.1-0.1c0.1-0.1,0.2-0.2,0.4-0.3c0.1,0,0.1-0.1,0.2,0c0.1,0,0.1,0.1,0.2,0.1C144.8,69.3,144.9,69.1,145,68.9
			L145,68.9z"/>
		<path class="st6" d="M148.9,65.5c0.1-0.2,0.3-0.4,0.5-0.6c0.2-0.1,0.3-0.3,0.6-0.3c0.2-0.1,0.4-0.1,0.6,0c0.2,0,0.3,0.1,0.4,0.3
			c0.1,0.1,0.3,0.3,0.3,0.5c0,0.2,0,0.4-0.1,0.6c-0.1,0.2-0.3,0.4-0.5,0.6c-0.2,0.2-0.4,0.3-0.6,0.5c0.1,0.1,0.3,0.3,0.5,0.3
			c0.2,0,0.4,0,0.5-0.1c0.2-0.1,0.3-0.3,0.5-0.4c0.1-0.1,0.2-0.2,0.3-0.4c0,0,0.1-0.1,0.1-0.1c0.1,0,0.1,0,0.1,0.1
			c0.1,0.1,0.1,0.2,0.2,0.2c0,0,0.1,0.1,0.1,0.2c0,0.1-0.1,0.2-0.1,0.2c-0.1,0.2-0.3,0.4-0.5,0.6c-0.2,0.2-0.3,0.3-0.5,0.4
			c-0.2,0.1-0.4,0.2-0.6,0.2c-0.2,0-0.4,0-0.6-0.1c-0.2-0.1-0.4-0.2-0.5-0.3c-0.2-0.2-0.4-0.4-0.5-0.6c-0.2-0.3-0.3-0.7-0.3-1
			C148.7,65.9,148.8,65.7,148.9,65.5L148.9,65.5z M149.5,66c0,0.2,0.1,0.4,0.2,0.6c0.2-0.1,0.4-0.2,0.5-0.4c0.1-0.1,0.2-0.2,0.2-0.3
			c0-0.1,0.1-0.2,0-0.3c0-0.1-0.1-0.2-0.2-0.2c-0.1-0.1-0.2-0.1-0.3-0.1c-0.1,0-0.2,0.1-0.3,0.2C149.6,65.6,149.5,65.8,149.5,66
			L149.5,66z"/>
		<path class="st6" d="M141.8,71.7c0.1-0.1,0.2-0.2,0.3-0.3c0,0,0.1-0.1,0.2-0.1c0.1,0,0.1,0,0.1,0.1c0.1,0.1,0.2,0.3,0.3,0.4
			c0,0,0.1,0.1,0.1,0.2c0,0.1-0.1,0.1-0.2,0.2c-0.2,0.1-0.3,0.3-0.5,0.5c0,0.1-0.1,0.1-0.1,0.2c0.5,0.6,1,1.1,1.4,1.7
			c0,0,0.1,0.1,0.1,0.1c0,0,0,0.1-0.1,0.1c-0.2,0.1-0.3,0.3-0.5,0.4c0,0-0.1,0.1-0.1,0.1c0,0-0.1,0-0.1-0.1c-0.7-0.8-1.3-1.5-2-2.3
			c0,0-0.1-0.1,0-0.1c0,0,0-0.1,0.1-0.1c0.1-0.1,0.2-0.2,0.4-0.3c0,0,0.1-0.1,0.1-0.1c0,0,0.1,0,0.1,0c0.1,0.1,0.2,0.1,0.3,0.2
			C141.6,72.1,141.7,71.9,141.8,71.7L141.8,71.7z"/>
		<path class="st6" d="M142.7,70.8C142.7,70.8,142.7,70.8,142.7,70.8c0.2-0.2,0.4-0.3,0.5-0.5c0,0,0.1-0.1,0.1-0.1
			c0.1,0,0.1,0.1,0.1,0.1c0.6,0.7,1.3,1.5,1.9,2.2c0,0,0.1,0.1,0.1,0.1c0,0.1,0,0.1-0.1,0.1c-0.2,0.1-0.3,0.3-0.5,0.4
			c0,0-0.1,0.1-0.1,0.1c0,0-0.1,0-0.1-0.1c-0.7-0.8-1.3-1.5-2-2.3C142.7,71,142.6,71,142.7,70.8C142.6,70.9,142.6,70.9,142.7,70.8
			L142.7,70.8z"/>
		<path class="st6" d="M151.9,69.1c0.2-0.2,0.5-0.4,0.8-0.6c0.1,0,0.2-0.1,0.3-0.1c0,0,0.1,0,0.1,0c0.1,0,0.1,0.1,0.1,0.1
			c0.1,0.1,0.2,0.3,0.3,0.4c0.2,0.3,0.3,0.6,0.4,0.9c0.1,0.4,0.2,0.8,0.1,1.1c0,0.1,0,0.1-0.1,0.2c0,0-0.1,0.1-0.1,0
			c0,0-0.1-0.1-0.1-0.1c-0.1-0.3-0.2-0.6-0.3-0.9c-0.1-0.2-0.2-0.4-0.3-0.6c-0.1-0.1-0.1-0.2-0.2-0.2c-0.1,0-0.2,0-0.2,0
			c-0.1,0.1-0.3,0.1-0.4,0.2c-0.4,0.3-0.7,0.7-1,1c0,0-0.1,0-0.1,0c0,0-0.1,0-0.1-0.1c0-0.1,0-0.1,0-0.2c0.1-0.3,0.3-0.6,0.5-0.9
			C151.7,69.3,151.8,69.2,151.9,69.1L151.9,69.1z"/>
		<path class="st6" d="M141.4,78.6c0,0,0-0.1,0.1-0.1c0,0,0.1,0,0.2,0c0.4-0.1,0.7-0.1,1-0.2c1.7-0.5,3.2-1.2,4.7-2.1
			c0.8-0.5,1.5-1.1,2.2-1.8c0.6-0.6,1.2-1.3,1.8-2.1c0.4-0.6,0.8-1.3,1.2-2c0.1-0.1,0.2-0.2,0.3-0.2c0.1,0,0.1,0.1,0.1,0.2
			c0,0.1,0,0.1,0,0.2c-0.1,0.5-0.3,0.9-0.5,1.4c-0.3,0.7-0.7,1.3-1.1,1.9c-0.5,0.8-1.1,1.5-1.8,2.1l-0.3,0.3
			c-0.1,0.1-0.2,0.2-0.3,0.2c-0.7,0.5-1.4,1-2.2,1.4c-0.7,0.3-1.5,0.6-2.3,0.8c-0.9,0.2-1.8,0.3-2.8,0.3c0,0-0.1,0-0.1,0
			C141.5,78.7,141.4,78.7,141.4,78.6L141.4,78.6z"/>
	</g>
	<g>
		<path class="st6" d="M156.6,83.8c0.1-0.5,0.3-0.9,0.7-1.2c0.2-0.1,0.5-0.2,0.8-0.1c0.4,0.1,0.7,0.3,0.9,0.5
			c0.3,0.3,0.5,0.6,0.6,0.9c0.1,0.3,0.2,0.6,0.1,0.9c-0.1,0.2-0.2,0.5-0.4,0.6c-0.2,0.2-0.6,0.4-0.9,0.4c0.3,0.4,0.6,0.7,0.9,1.1
			c0,0,0,0.1,0,0.1c0,0,0,0.1-0.1,0.1c-0.2,0.1-0.3,0.3-0.5,0.4c0,0-0.1,0.1-0.1,0c0,0-0.1,0-0.1-0.1l-2.9-3.3c-0.1-0.1,0-0.1,0-0.2
			c0.1-0.1,0.2-0.2,0.3-0.3c0,0,0.1-0.1,0.1-0.1c0,0,0.1,0,0.1,0C156.4,83.7,156.5,83.8,156.6,83.8L156.6,83.8z M156.9,84.1
			c0.4,0.4,0.7,0.9,1.1,1.3c0.3,0,0.5-0.2,0.7-0.4c0.1-0.1,0.2-0.3,0.1-0.5c-0.1-0.3-0.2-0.5-0.4-0.7c-0.1-0.1-0.2-0.2-0.4-0.3
			c-0.1-0.1-0.2-0.1-0.3-0.1c-0.1,0-0.3,0-0.4,0.1C157.2,83.6,157,83.9,156.9,84.1L156.9,84.1z"/>
		<path class="st6" d="M163,77.9c0.1-0.2,0.2-0.4,0.4-0.5c0.1-0.1,0.3-0.2,0.5-0.3c0.1,0,0.3,0,0.5,0c0.1-0.2,0.2-0.5,0.3-0.7
			c0.1-0.2,0.2-0.3,0.4-0.5c0.1-0.1,0.3-0.2,0.5-0.2c0.2,0,0.3,0,0.5,0.1c0.1,0.1,0.2,0.1,0.3,0.3c0.5,0.6,1,1.2,1.6,1.8
			c0,0,0.1,0.1,0,0.1c0,0,0,0.1-0.1,0.1c-0.2,0.1-0.3,0.3-0.5,0.4c0,0-0.1,0.1-0.1,0c0,0-0.1,0-0.1-0.1c-0.5-0.5-0.9-1.1-1.4-1.6
			c-0.1-0.1-0.2-0.1-0.3-0.2c-0.1,0-0.2,0-0.3,0.1c-0.2,0.2-0.3,0.4-0.4,0.6c0.5,0.6,1,1.2,1.6,1.8c0,0,0.1,0.1,0,0.1
			c0,0,0,0.1-0.1,0.1c-0.2,0.1-0.3,0.3-0.5,0.4c0,0-0.1,0.1-0.1,0.1c0,0-0.1,0-0.1-0.1c-0.5-0.5-0.9-1.1-1.4-1.6
			c-0.1-0.1-0.2-0.2-0.3-0.2c-0.1,0-0.2,0-0.3,0.1c-0.2,0.2-0.4,0.4-0.5,0.6c0.5,0.6,1,1.2,1.6,1.8c0,0,0.1,0.1,0,0.1
			c0,0,0,0.1-0.1,0.1c-0.2,0.1-0.3,0.3-0.5,0.4c0,0-0.1,0.1-0.1,0c0,0-0.1,0-0.1-0.1c-0.7-0.8-1.3-1.5-2-2.3c0,0-0.1-0.1-0.1-0.1
			c0-0.1,0-0.1,0.1-0.1c0.1-0.1,0.2-0.2,0.4-0.3c0.1,0,0.1-0.1,0.2,0c0.1,0,0.1,0.1,0.2,0.1C162.8,78.3,162.9,78.1,163,77.9
			L163,77.9z"/>
		<path class="st6" d="M166.9,74.5c0.1-0.2,0.3-0.4,0.5-0.6c0.2-0.1,0.3-0.3,0.6-0.3c0.2-0.1,0.4-0.1,0.6,0c0.2,0,0.3,0.1,0.4,0.3
			c0.1,0.1,0.3,0.3,0.3,0.5c0,0.2,0,0.4-0.1,0.6c-0.1,0.2-0.3,0.4-0.5,0.6c-0.2,0.2-0.4,0.3-0.6,0.5c0.1,0.1,0.3,0.3,0.5,0.3
			c0.2,0,0.4,0,0.5-0.1c0.2-0.1,0.3-0.3,0.5-0.4c0.1-0.1,0.2-0.2,0.3-0.4c0,0,0.1-0.1,0.1-0.1c0.1,0,0.1,0,0.1,0.1
			c0.1,0.1,0.1,0.2,0.2,0.2c0,0,0.1,0.1,0.1,0.2c0,0.1-0.1,0.2-0.1,0.2c-0.1,0.2-0.3,0.4-0.5,0.6c-0.2,0.2-0.3,0.3-0.5,0.4
			c-0.2,0.1-0.4,0.2-0.6,0.2c-0.2,0-0.4,0-0.6-0.1c-0.2-0.1-0.4-0.2-0.5-0.3c-0.2-0.2-0.4-0.4-0.5-0.6c-0.2-0.3-0.3-0.7-0.3-1
			C166.7,74.9,166.8,74.7,166.9,74.5L166.9,74.5z M167.5,75c0,0.2,0.1,0.4,0.2,0.6c0.2-0.1,0.4-0.2,0.5-0.4c0.1-0.1,0.2-0.2,0.2-0.3
			c0-0.1,0.1-0.2,0-0.3c0-0.1-0.1-0.2-0.2-0.2c-0.1-0.1-0.2-0.1-0.3-0.1c-0.1,0-0.2,0.1-0.3,0.2C167.6,74.6,167.5,74.8,167.5,75
			L167.5,75z"/>
		<path class="st6" d="M159.8,80.7c0.1-0.1,0.2-0.2,0.3-0.3c0,0,0.1-0.1,0.2-0.1c0.1,0,0.1,0,0.1,0.1c0.1,0.1,0.2,0.3,0.3,0.4
			c0,0,0.1,0.1,0.1,0.2c0,0.1-0.1,0.1-0.2,0.2c-0.2,0.1-0.3,0.3-0.5,0.5c0,0.1-0.1,0.1-0.1,0.2c0.5,0.6,1,1.1,1.4,1.7
			c0,0,0.1,0.1,0.1,0.1c0,0,0,0.1-0.1,0.1c-0.2,0.1-0.3,0.3-0.5,0.4c0,0-0.1,0.1-0.1,0.1c0,0-0.1,0-0.1-0.1c-0.7-0.8-1.3-1.5-2-2.3
			c0,0-0.1-0.1,0-0.1c0,0,0-0.1,0.1-0.1c0.1-0.1,0.2-0.2,0.4-0.3c0,0,0.1-0.1,0.1-0.1c0,0,0.1,0,0.1,0c0.1,0.1,0.2,0.1,0.3,0.2
			C159.6,81.1,159.7,80.9,159.8,80.7L159.8,80.7z"/>
		<path class="st6" d="M160.7,79.8C160.7,79.8,160.7,79.8,160.7,79.8c0.2-0.2,0.4-0.3,0.5-0.5c0,0,0.1-0.1,0.1-0.1
			c0.1,0,0.1,0.1,0.1,0.1c0.6,0.7,1.3,1.5,1.9,2.2c0,0,0.1,0.1,0.1,0.1c0,0.1,0,0.1-0.1,0.1c-0.2,0.1-0.3,0.3-0.5,0.4
			c0,0-0.1,0.1-0.1,0.1c0,0-0.1,0-0.1-0.1c-0.7-0.8-1.3-1.5-2-2.3C160.7,80,160.6,80,160.7,79.8C160.6,79.9,160.6,79.9,160.7,79.8
			L160.7,79.8z"/>
		<path class="st6" d="M169.9,78.1c0.2-0.2,0.5-0.4,0.8-0.6c0.1,0,0.2-0.1,0.3-0.1c0,0,0.1,0,0.1,0c0.1,0,0.1,0.1,0.1,0.1
			c0.1,0.1,0.2,0.3,0.3,0.4c0.2,0.3,0.3,0.6,0.4,0.9c0.1,0.4,0.2,0.8,0.1,1.1c0,0.1,0,0.1-0.1,0.2c0,0-0.1,0.1-0.1,0
			c0,0-0.1-0.1-0.1-0.1c-0.1-0.3-0.2-0.6-0.3-0.9c-0.1-0.2-0.2-0.4-0.3-0.6c-0.1-0.1-0.1-0.2-0.2-0.2c-0.1,0-0.2,0-0.2,0
			c-0.1,0.1-0.3,0.1-0.4,0.2c-0.4,0.3-0.7,0.7-1,1c0,0-0.1,0-0.1,0c0,0-0.1,0-0.1-0.1c0-0.1,0-0.1,0-0.2c0.1-0.3,0.3-0.6,0.5-0.9
			C169.7,78.3,169.8,78.2,169.9,78.1L169.9,78.1z"/>
		<path class="st6" d="M159.4,87.6c0,0,0-0.1,0.1-0.1c0,0,0.1,0,0.2,0c0.4-0.1,0.7-0.1,1-0.2c1.7-0.5,3.2-1.2,4.7-2.1
			c0.8-0.5,1.5-1.1,2.2-1.8c0.6-0.6,1.2-1.3,1.8-2.1c0.4-0.6,0.8-1.3,1.2-2c0.1-0.1,0.2-0.2,0.3-0.2c0.1,0,0.1,0.1,0.1,0.2
			c0,0.1,0,0.1,0,0.2c-0.1,0.5-0.3,0.9-0.5,1.4c-0.3,0.7-0.7,1.3-1.1,1.9c-0.5,0.8-1.1,1.5-1.8,2.1l-0.3,0.3
			c-0.1,0.1-0.2,0.2-0.3,0.2c-0.7,0.5-1.4,1-2.2,1.4c-0.7,0.3-1.5,0.6-2.3,0.8c-0.9,0.2-1.8,0.3-2.8,0.3c0,0-0.1,0-0.1,0
			C159.5,87.7,159.4,87.7,159.4,87.6L159.4,87.6z"/>
	</g>
	<g>
		<path class="st6" d="M170.4,95.5c0.2-0.4,0.7-0.7,1.1-0.8c0.3,0,0.6,0,0.8,0.2c0.3,0.2,0.5,0.5,0.7,0.8c0.1,0.3,0.2,0.7,0.2,1.1
			c0,0.3-0.1,0.6-0.3,0.9c-0.2,0.2-0.4,0.4-0.6,0.4c-0.3,0.1-0.7,0.1-1,0c0.1,0.5,0.3,0.9,0.4,1.4c0,0,0,0.1,0,0.1
			c0,0-0.1,0.1-0.1,0.1c-0.2,0.1-0.4,0.1-0.6,0.2c0,0-0.1,0-0.1,0c0,0,0-0.1-0.1-0.1l-1.4-4.2c0-0.1,0-0.1,0.1-0.2
			c0.1,0,0.3-0.1,0.4-0.1c0,0,0.1,0,0.1,0c0,0,0.1,0,0.1,0.1C170.3,95.4,170.4,95.4,170.4,95.5L170.4,95.5z M170.6,95.9
			c0.2,0.5,0.4,1.1,0.5,1.6c0.3,0.1,0.6,0,0.8-0.1c0.2-0.1,0.3-0.2,0.3-0.4c0-0.3,0-0.5-0.1-0.8c-0.1-0.2-0.1-0.3-0.2-0.5
			c-0.1-0.1-0.1-0.2-0.2-0.2c-0.1-0.1-0.3-0.1-0.4,0C171,95.6,170.8,95.7,170.6,95.9L170.6,95.9z"/>
		<path class="st6" d="M178.6,92.5c0.2-0.1,0.3-0.2,0.5-0.3c0.2-0.1,0.4-0.1,0.6-0.1c0.2,0,0.3,0.1,0.4,0.2c0.2-0.2,0.3-0.4,0.5-0.5
			c0.2-0.1,0.3-0.2,0.5-0.3c0.2,0,0.3-0.1,0.5,0c0.2,0,0.3,0.1,0.4,0.3c0.1,0.1,0.2,0.2,0.2,0.4c0.2,0.8,0.5,1.5,0.7,2.3
			c0,0,0,0.1,0,0.1c0,0-0.1,0-0.1,0.1c-0.2,0.1-0.4,0.1-0.6,0.2c0,0-0.1,0-0.1,0c0,0-0.1-0.1-0.1-0.1c-0.2-0.7-0.4-1.4-0.7-2
			c0-0.1-0.1-0.2-0.2-0.2c-0.1,0-0.2,0-0.3,0c-0.2,0.1-0.5,0.2-0.6,0.4c0.2,0.8,0.5,1.5,0.7,2.3c0,0,0,0.1,0,0.1c0,0-0.1,0-0.1,0.1
			c-0.2,0.1-0.4,0.1-0.6,0.2c0,0-0.1,0-0.1,0c0,0-0.1-0.1-0.1-0.1c-0.2-0.7-0.4-1.3-0.7-2c0-0.1-0.1-0.2-0.2-0.3c-0.1,0-0.2,0-0.3,0
			c-0.2,0.1-0.5,0.2-0.7,0.4c0.2,0.8,0.5,1.5,0.7,2.3c0,0,0,0.1,0,0.1c0,0-0.1,0-0.1,0.1c-0.2,0.1-0.4,0.1-0.6,0.2c0,0-0.1,0-0.1,0
			c0,0-0.1-0.1-0.1-0.1c-0.3-1-0.6-1.9-0.9-2.9c0,0,0-0.1,0-0.1c0,0,0.1-0.1,0.1-0.1c0.2,0,0.3-0.1,0.5-0.1c0.1,0,0.1,0,0.2,0.1
			c0,0.1,0.1,0.1,0.1,0.2C178.3,92.8,178.5,92.7,178.6,92.5L178.6,92.5z"/>
		<path class="st6" d="M183.5,90.9c0.2-0.2,0.4-0.3,0.7-0.3c0.2-0.1,0.4-0.1,0.6-0.1c0.2,0,0.4,0.1,0.6,0.2c0.1,0.1,0.2,0.3,0.3,0.4
			c0.1,0.2,0.1,0.4,0.1,0.6c0,0.2-0.2,0.4-0.3,0.5c-0.2,0.2-0.4,0.3-0.7,0.4c-0.3,0.1-0.5,0.2-0.8,0.2c0.1,0.2,0.2,0.4,0.4,0.5
			c0.2,0.1,0.3,0.1,0.5,0.1c0.2,0,0.4-0.1,0.6-0.2c0.1-0.1,0.3-0.2,0.4-0.2c0,0,0.1-0.1,0.1,0c0,0,0.1,0.1,0.1,0.1
			c0,0.1,0.1,0.2,0.1,0.3c0,0.1,0,0.1,0,0.2c0,0.1-0.1,0.1-0.2,0.2c-0.2,0.1-0.4,0.3-0.6,0.3c-0.2,0.1-0.4,0.1-0.6,0.2
			c-0.2,0-0.4,0-0.6-0.1c-0.2-0.1-0.4-0.2-0.5-0.3c-0.2-0.1-0.3-0.3-0.4-0.5c-0.1-0.2-0.2-0.5-0.2-0.7c-0.1-0.4,0-0.7,0.1-1.1
			C183.2,91.2,183.4,91.1,183.5,90.9L183.5,90.9z M183.9,91.6c-0.1,0.2-0.1,0.4,0,0.6c0.2,0,0.4-0.1,0.6-0.1c0.1,0,0.2-0.1,0.3-0.2
			c0.1-0.1,0.1-0.1,0.1-0.2c0-0.1,0-0.2-0.1-0.3c0-0.1-0.1-0.2-0.2-0.2c-0.1,0-0.3,0-0.4,0C184.1,91.3,183.9,91.4,183.9,91.6
			L183.9,91.6z"/>
		<path class="st6" d="M174.6,93.8c0.1-0.1,0.2-0.2,0.4-0.2c0.1,0,0.1-0.1,0.2,0c0,0,0.1,0.1,0.1,0.1c0.1,0.2,0.1,0.3,0.2,0.5
			c0,0.1,0,0.1,0,0.2c-0.1,0.1-0.1,0.1-0.2,0.1c-0.2,0-0.4,0.2-0.6,0.3c-0.1,0-0.1,0.1-0.2,0.1c0.2,0.7,0.5,1.4,0.7,2.1
			c0,0,0,0.1,0,0.1c0,0-0.1,0.1-0.1,0.1c-0.2,0.1-0.4,0.1-0.6,0.2c0,0-0.1,0-0.1,0c0,0-0.1-0.1-0.1-0.1c-0.3-1-0.6-1.9-0.9-2.9
			c0,0,0-0.1,0-0.1c0,0,0.1-0.1,0.1-0.1c0.1,0,0.3-0.1,0.4-0.1c0,0,0.1,0,0.1,0c0,0,0.1,0,0.1,0.1c0.1,0.1,0.1,0.2,0.2,0.3
			C174.3,94.2,174.4,94,174.6,93.8L174.6,93.8z"/>
		<path class="st6" d="M175.7,93.4C175.7,93.4,175.8,93.4,175.7,93.4c0.3-0.1,0.5-0.2,0.7-0.2c0,0,0.1,0,0.1,0c0,0,0.1,0.1,0.1,0.1
			c0.3,0.9,0.6,1.9,0.9,2.8c0,0,0,0.1,0,0.1c0,0-0.1,0.1-0.1,0.1c-0.2,0.1-0.4,0.1-0.6,0.2c0,0-0.1,0-0.1,0c0,0-0.1-0.1-0.1-0.1
			c-0.3-0.9-0.6-1.9-0.9-2.8C175.7,93.6,175.7,93.5,175.7,93.4C175.7,93.5,175.7,93.4,175.7,93.4L175.7,93.4z"/>
		<path class="st6" d="M185,95.4c0.3-0.1,0.6-0.2,1-0.2c0.1,0,0.2,0,0.3,0c0,0,0.1,0,0.1,0c0,0,0.1,0.1,0.1,0.1
			c0.1,0.2,0.1,0.3,0.1,0.5c0,0.3,0.1,0.6,0,1c0,0.4-0.1,0.8-0.3,1.1c0,0.1-0.1,0.1-0.1,0.2c0,0-0.1,0-0.1,0c0,0,0-0.1,0-0.1
			c0-0.3,0-0.7,0-1c0-0.2,0-0.4-0.1-0.7c0-0.1-0.1-0.2-0.1-0.3c-0.1-0.1-0.1-0.1-0.2-0.1c-0.1,0-0.3,0-0.4,0.1
			c-0.5,0.1-0.9,0.3-1.3,0.5c0,0-0.1,0-0.1,0c0,0,0-0.1,0-0.1c0-0.1,0-0.1,0.1-0.1c0.2-0.3,0.5-0.5,0.8-0.6
			C184.6,95.6,184.8,95.5,185,95.4L185,95.4z"/>
		<path class="st6" d="M171.5,100.1c0,0,0.1-0.1,0.1-0.1c0.1,0,0.1,0,0.2,0c0.4,0.1,0.7,0.1,1.1,0.2c1.7,0.2,3.4,0.2,5.1-0.2
			c0.9-0.2,1.8-0.4,2.7-0.8c0.8-0.3,1.7-0.8,2.4-1.2c0.6-0.4,1.3-0.9,1.8-1.4c0.1-0.1,0.3-0.1,0.4,0c0.1,0,0.1,0.1,0.1,0.2
			c0,0.1,0,0.1-0.1,0.2c-0.3,0.4-0.6,0.8-1,1.1c-0.5,0.5-1.1,1-1.7,1.4c-0.8,0.5-1.6,0.9-2.5,1.2l-0.4,0.1c-0.1,0-0.3,0.1-0.4,0.1
			c-0.8,0.2-1.7,0.4-2.6,0.4c-0.8,0-1.6,0-2.4-0.2c-0.9-0.2-1.8-0.4-2.6-0.8c0,0-0.1,0-0.1-0.1C171.5,100.2,171.5,100.2,171.5,100.1
			L171.5,100.1z"/>
	</g>
	<g>
		<path class="st6" d="M171.4,111.5c0.2-0.4,0.7-0.7,1.1-0.8c0.3,0,0.6,0,0.8,0.2c0.3,0.2,0.5,0.5,0.7,0.8c0.1,0.3,0.2,0.7,0.2,1.1
			c0,0.3-0.1,0.6-0.3,0.9c-0.2,0.2-0.4,0.4-0.6,0.4c-0.3,0.1-0.7,0.1-1,0c0.1,0.5,0.3,0.9,0.4,1.4c0,0,0,0.1,0,0.1
			c0,0-0.1,0.1-0.1,0.1c-0.2,0.1-0.4,0.1-0.6,0.2c0,0-0.1,0-0.1,0c0,0,0-0.1-0.1-0.1l-1.4-4.2c0-0.1,0-0.1,0.1-0.2
			c0.1,0,0.3-0.1,0.4-0.1c0,0,0.1,0,0.1,0c0,0,0.1,0,0.1,0.1C171.3,111.4,171.4,111.4,171.4,111.5L171.4,111.5z M171.6,111.9
			c0.2,0.5,0.4,1.1,0.5,1.6c0.3,0.1,0.6,0,0.8-0.1c0.2-0.1,0.3-0.2,0.3-0.4c0-0.3,0-0.5-0.1-0.8c-0.1-0.2-0.1-0.3-0.2-0.5
			c-0.1-0.1-0.1-0.2-0.2-0.2c-0.1-0.1-0.3-0.1-0.4,0C172,111.6,171.8,111.7,171.6,111.9L171.6,111.9z"/>
		<path class="st6" d="M179.6,108.5c0.2-0.1,0.3-0.2,0.5-0.3c0.2-0.1,0.4-0.1,0.6-0.1c0.2,0,0.3,0.1,0.4,0.2
			c0.2-0.2,0.3-0.4,0.5-0.5c0.2-0.1,0.3-0.2,0.5-0.3c0.2,0,0.3-0.1,0.5,0c0.2,0,0.3,0.1,0.4,0.3c0.1,0.1,0.2,0.2,0.2,0.4
			c0.2,0.8,0.5,1.5,0.7,2.3c0,0,0,0.1,0,0.1c0,0-0.1,0-0.1,0.1c-0.2,0.1-0.4,0.1-0.6,0.2c0,0-0.1,0-0.1,0c0,0-0.1-0.1-0.1-0.1
			c-0.2-0.7-0.4-1.4-0.7-2c0-0.1-0.1-0.2-0.2-0.2c-0.1,0-0.2,0-0.3,0c-0.2,0.1-0.5,0.2-0.6,0.4c0.2,0.8,0.5,1.5,0.7,2.3
			c0,0,0,0.1,0,0.1c0,0-0.1,0-0.1,0.1c-0.2,0.1-0.4,0.1-0.6,0.2c0,0-0.1,0-0.1,0c0,0-0.1-0.1-0.1-0.1c-0.2-0.7-0.4-1.3-0.7-2
			c0-0.1-0.1-0.2-0.2-0.3c-0.1,0-0.2,0-0.3,0c-0.2,0.1-0.5,0.2-0.7,0.4c0.2,0.8,0.5,1.5,0.7,2.3c0,0,0,0.1,0,0.1c0,0-0.1,0-0.1,0.1
			c-0.2,0.1-0.4,0.1-0.6,0.2c0,0-0.1,0-0.1,0c0,0-0.1-0.1-0.1-0.1c-0.3-1-0.6-1.9-0.9-2.9c0,0,0-0.1,0-0.1c0,0,0.1-0.1,0.1-0.1
			c0.2,0,0.3-0.1,0.5-0.1c0.1,0,0.1,0,0.2,0.1c0,0.1,0.1,0.1,0.1,0.2C179.3,108.8,179.5,108.7,179.6,108.5L179.6,108.5z"/>
		<path class="st6" d="M184.5,106.9c0.2-0.2,0.4-0.3,0.7-0.3c0.2-0.1,0.4-0.1,0.6-0.1c0.2,0,0.4,0.1,0.6,0.2
			c0.1,0.1,0.2,0.3,0.3,0.4c0.1,0.2,0.1,0.4,0.1,0.6c0,0.2-0.2,0.4-0.3,0.5c-0.2,0.2-0.4,0.3-0.7,0.4c-0.3,0.1-0.5,0.2-0.8,0.2
			c0.1,0.2,0.2,0.4,0.4,0.5c0.2,0.1,0.3,0.1,0.5,0.1c0.2,0,0.4-0.1,0.6-0.2c0.1-0.1,0.3-0.2,0.4-0.2c0,0,0.1-0.1,0.1,0
			c0,0,0.1,0.1,0.1,0.1c0,0.1,0.1,0.2,0.1,0.3c0,0.1,0,0.1,0,0.2c0,0.1-0.1,0.1-0.2,0.2c-0.2,0.1-0.4,0.3-0.6,0.3
			c-0.2,0.1-0.4,0.1-0.6,0.2c-0.2,0-0.4,0-0.6-0.1c-0.2-0.1-0.4-0.2-0.5-0.3c-0.2-0.1-0.3-0.3-0.4-0.5c-0.1-0.2-0.2-0.5-0.2-0.7
			c-0.1-0.4,0-0.7,0.1-1.1C184.2,107.2,184.4,107.1,184.5,106.9L184.5,106.9z M184.9,107.6c-0.1,0.2-0.1,0.4,0,0.6
			c0.2,0,0.4-0.1,0.6-0.1c0.1,0,0.2-0.1,0.3-0.2c0.1-0.1,0.1-0.1,0.1-0.2c0-0.1,0-0.2-0.1-0.3c0-0.1-0.1-0.2-0.2-0.2
			c-0.1,0-0.3,0-0.4,0C185.1,107.3,184.9,107.4,184.9,107.6L184.9,107.6z"/>
		<path class="st6" d="M175.6,109.8c0.1-0.1,0.2-0.2,0.4-0.2c0.1,0,0.1-0.1,0.2,0c0,0,0.1,0.1,0.1,0.1c0.1,0.2,0.1,0.3,0.2,0.5
			c0,0.1,0,0.1,0,0.2c-0.1,0.1-0.1,0.1-0.2,0.1c-0.2,0-0.4,0.2-0.6,0.3c-0.1,0-0.1,0.1-0.2,0.1c0.2,0.7,0.5,1.4,0.7,2.1
			c0,0,0,0.1,0,0.1c0,0-0.1,0.1-0.1,0.1c-0.2,0.1-0.4,0.1-0.6,0.2c0,0-0.1,0-0.1,0c0,0-0.1-0.1-0.1-0.1c-0.3-1-0.6-1.9-0.9-2.9
			c0,0,0-0.1,0-0.1c0,0,0.1-0.1,0.1-0.1c0.1,0,0.3-0.1,0.4-0.1c0,0,0.1,0,0.1,0c0,0,0.1,0,0.1,0.1c0.1,0.1,0.1,0.2,0.2,0.3
			C175.3,110.2,175.4,110,175.6,109.8L175.6,109.8z"/>
		<path class="st6" d="M176.7,109.4C176.7,109.4,176.8,109.4,176.7,109.4c0.3-0.1,0.5-0.2,0.7-0.2c0,0,0.1,0,0.1,0
			c0,0,0.1,0.1,0.1,0.1c0.3,0.9,0.6,1.9,0.9,2.8c0,0,0,0.1,0,0.1c0,0-0.1,0.1-0.1,0.1c-0.2,0.1-0.4,0.1-0.6,0.2c0,0-0.1,0-0.1,0
			c0,0-0.1-0.1-0.1-0.1c-0.3-0.9-0.6-1.9-0.9-2.8C176.7,109.6,176.7,109.5,176.7,109.4C176.7,109.5,176.7,109.4,176.7,109.4
			L176.7,109.4z"/>
		<path class="st6" d="M186,111.4c0.3-0.1,0.6-0.2,1-0.2c0.1,0,0.2,0,0.3,0c0,0,0.1,0,0.1,0c0,0,0.1,0.1,0.1,0.1
			c0.1,0.2,0.1,0.3,0.1,0.5c0,0.3,0.1,0.6,0,1c0,0.4-0.1,0.8-0.3,1.1c0,0.1-0.1,0.1-0.1,0.2c0,0-0.1,0-0.1,0c0,0,0-0.1,0-0.1
			c0-0.3,0-0.7,0-1c0-0.2,0-0.4-0.1-0.7c0-0.1-0.1-0.2-0.1-0.3c-0.1-0.1-0.1-0.1-0.2-0.1c-0.1,0-0.3,0-0.4,0.1
			c-0.5,0.1-0.9,0.3-1.3,0.5c0,0-0.1,0-0.1,0c0,0,0-0.1,0-0.1c0-0.1,0-0.1,0.1-0.1c0.2-0.3,0.5-0.5,0.8-0.6
			C185.6,111.6,185.8,111.5,186,111.4L186,111.4z"/>
		<path class="st6" d="M172.5,116.1c0,0,0.1-0.1,0.1-0.1c0.1,0,0.1,0,0.2,0c0.4,0.1,0.7,0.1,1.1,0.2c1.7,0.2,3.4,0.2,5.1-0.2
			c0.9-0.2,1.8-0.4,2.7-0.8c0.8-0.3,1.7-0.8,2.4-1.2c0.6-0.4,1.3-0.9,1.8-1.4c0.1-0.1,0.3-0.1,0.4,0c0.1,0,0.1,0.1,0.1,0.2
			c0,0.1,0,0.1-0.1,0.2c-0.3,0.4-0.6,0.8-1,1.1c-0.5,0.5-1.1,1-1.7,1.4c-0.8,0.5-1.6,0.9-2.5,1.2l-0.4,0.1c-0.1,0-0.3,0.1-0.4,0.1
			c-0.8,0.2-1.7,0.4-2.6,0.4c-0.8,0-1.6,0-2.4-0.2c-0.9-0.2-1.8-0.4-2.6-0.8c0,0-0.1,0-0.1-0.1C172.5,116.2,172.5,116.2,172.5,116.1
			L172.5,116.1z"/>
	</g>
	<g>
		<path class="st7" d="M111.3,169.4c-10.2,2.5-22.8,0.9-32.5-3.2c-13.7-5.7-23.9-15.8-29.7-28.1c-0.5-1,0.6-1.6,1.2-0.7
			c7.6,10,18.6,18.7,31.4,24c8.7,3.6,18.9,5.7,29.2,5.7C112.5,167.1,113,169,111.3,169.4z"/>
		<path class="st7" d="M116.1,167.1c-0.5-1.7-6.4-3.3-9-4.1c-0.8-0.2-0.6-0.9,0.2-1.1c5.8-1.3,12.7,2.7,13.1,4.1
			c0.4,1.4-3.7,8.3-9.4,10.1c-0.9,0.3-1.4-0.3-0.8-0.9C112.3,173.2,116.6,168.8,116.1,167.1z"/>
	</g>
	<g>
		<path d="M73.6,174.7l-4.5-2.3l-1.6,3.1l5.3,2.7l-1,1.9l-7.6-3.9l5.8-11.4l7.6,3.9l-1,1.9l-5.3-2.7l-1.4,2.7l4.5,2.3L73.6,174.7z"
			/>
		<path d="M78.7,175.1l1.2,0.6c0.6,0.3,1.1,0.4,1.5,0.2s0.8-0.5,1-0.9c0.2-0.5,0.3-0.9,0.1-1.3c-0.1-0.4-0.5-0.7-0.9-1
			c-0.4-0.2-0.9-0.3-1.3-0.2c-0.4,0.1-0.7,0.3-0.9,0.7l-2.3-1.2c0.3-0.6,0.7-1,1.3-1.4c0.6-0.3,1.2-0.4,1.9-0.4
			c0.7,0,1.4,0.2,2.1,0.6c1.2,0.6,2,1.4,2.4,2.3c0.4,0.9,0.3,1.9-0.2,2.9c-0.3,0.5-0.7,0.9-1.2,1.2c-0.5,0.3-1.1,0.4-1.8,0.4
			c0.5,0.6,0.8,1.1,0.9,1.8c0.1,0.6,0,1.2-0.4,1.9c-0.5,1-1.3,1.6-2.4,1.9s-2.2,0-3.4-0.6c-1.1-0.6-1.9-1.4-2.3-2.3
			c-0.4-1-0.4-1.9,0.1-2.9l2.3,1.2c-0.2,0.4-0.2,0.9-0.1,1.3c0.2,0.4,0.5,0.8,1,1c0.5,0.3,1,0.3,1.5,0.2c0.5-0.1,0.8-0.4,1-0.9
			c0.6-1.1,0.2-2-1-2.7l-1.2-0.6L78.7,175.1z"/>
	</g>
</g>
</svg>
